%FSLAX45Y45*%
G04 Gerber Fmt 4.5, Leading zero omitted, Abs format (unit mm)*
G04 Created by KiCad (PCBNEW 6.0.0-rc2-1.20211220git160328a.fc35) date 2022-01-05 17:26:33*
%MOMM*%
%LPD*%
G01*
G04 APERTURE LIST*
%TA.AperFunction,Profile*%
%ADD10C,0.100000*%
%TD*%
%ADD11C,0.200000*%
G04 APERTURE END LIST*
D10*
X14400000Y-12800000D02*
X14400000Y-10200000D01*
X12500000Y-12900000D02*
X14300000Y-12900000D01*
X12400000Y-10200000D02*
X12400000Y-12800000D01*
X14300000Y-10100000D02*
X12500000Y-10100000D01*
X12400000Y-12800000D02*
G75*
G03*
X12500000Y-12900000I100000J0D01*
G01*
X14300000Y-12900000D02*
G75*
G03*
X14400000Y-12800000I0J100000D01*
G01*
X14400000Y-10200000D02*
G75*
G03*
X14300000Y-10100000I-100000J0D01*
G01*
X12500000Y-10100000D02*
G75*
G03*
X12400000Y-10200000I0J-100000D01*
G01*
D11*
X12652619Y-13215476D02*
X12652619Y-13015476D01*
X12700238Y-13015476D01*
X12728809Y-13025000D01*
X12747857Y-13044048D01*
X12757381Y-13063095D01*
X12766905Y-13101190D01*
X12766905Y-13129762D01*
X12757381Y-13167857D01*
X12747857Y-13186905D01*
X12728809Y-13205952D01*
X12700238Y-13215476D01*
X12652619Y-13215476D01*
X12852619Y-13215476D02*
X12852619Y-13082143D01*
X12852619Y-13120238D02*
X12862143Y-13101190D01*
X12871667Y-13091667D01*
X12890714Y-13082143D01*
X12909762Y-13082143D01*
X12976428Y-13215476D02*
X12976428Y-13082143D01*
X12976428Y-13015476D02*
X12966905Y-13025000D01*
X12976428Y-13034524D01*
X12985952Y-13025000D01*
X12976428Y-13015476D01*
X12976428Y-13034524D01*
X13100238Y-13215476D02*
X13081190Y-13205952D01*
X13071667Y-13186905D01*
X13071667Y-13015476D01*
X13205000Y-13215476D02*
X13185952Y-13205952D01*
X13176428Y-13186905D01*
X13176428Y-13015476D01*
X13433571Y-13215476D02*
X13433571Y-13015476D01*
X13500238Y-13158333D01*
X13566905Y-13015476D01*
X13566905Y-13215476D01*
X13747857Y-13215476D02*
X13747857Y-13110714D01*
X13738333Y-13091667D01*
X13719286Y-13082143D01*
X13681190Y-13082143D01*
X13662143Y-13091667D01*
X13747857Y-13205952D02*
X13728809Y-13215476D01*
X13681190Y-13215476D01*
X13662143Y-13205952D01*
X13652619Y-13186905D01*
X13652619Y-13167857D01*
X13662143Y-13148809D01*
X13681190Y-13139286D01*
X13728809Y-13139286D01*
X13747857Y-13129762D01*
X13843095Y-13082143D02*
X13843095Y-13282143D01*
X13843095Y-13091667D02*
X13862143Y-13082143D01*
X13900238Y-13082143D01*
X13919286Y-13091667D01*
X13928809Y-13101190D01*
X13938333Y-13120238D01*
X13938333Y-13177381D01*
X13928809Y-13196428D01*
X13919286Y-13205952D01*
X13900238Y-13215476D01*
X13862143Y-13215476D01*
X13843095Y-13205952D01*
X14024048Y-13196428D02*
X14033571Y-13205952D01*
X14024048Y-13215476D01*
X14014524Y-13205952D01*
X14024048Y-13196428D01*
X14024048Y-13215476D01*
X14024048Y-13091667D02*
X14033571Y-13101190D01*
X14024048Y-13110714D01*
X14014524Y-13101190D01*
X14024048Y-13091667D01*
X14024048Y-13110714D01*
M02*
