%TF.GenerationSoftware,KiCad,Pcbnew,6.0.0-rc2-1.20211220git160328a.fc35*%
%TF.CreationDate,2022-01-05T17:26:22+00:00*%
%TF.ProjectId,RotaryEncoder,526f7461-7279-4456-9e63-6f6465722e6b,rev?*%
%TF.SameCoordinates,Original*%
%TF.FileFunction,Copper,L2,Bot*%
%TF.FilePolarity,Positive*%
%FSLAX46Y46*%
G04 Gerber Fmt 4.6, Leading zero omitted, Abs format (unit mm)*
G04 Created by KiCad (PCBNEW 6.0.0-rc2-1.20211220git160328a.fc35) date 2022-01-05 17:26:22*
%MOMM*%
%LPD*%
G01*
G04 APERTURE LIST*
G04 Aperture macros list*
%AMRoundRect*
0 Rectangle with rounded corners*
0 $1 Rounding radius*
0 $2 $3 $4 $5 $6 $7 $8 $9 X,Y pos of 4 corners*
0 Add a 4 corners polygon primitive as box body*
4,1,4,$2,$3,$4,$5,$6,$7,$8,$9,$2,$3,0*
0 Add four circle primitives for the rounded corners*
1,1,$1+$1,$2,$3*
1,1,$1+$1,$4,$5*
1,1,$1+$1,$6,$7*
1,1,$1+$1,$8,$9*
0 Add four rect primitives between the rounded corners*
20,1,$1+$1,$2,$3,$4,$5,0*
20,1,$1+$1,$4,$5,$6,$7,0*
20,1,$1+$1,$6,$7,$8,$9,0*
20,1,$1+$1,$8,$9,$2,$3,0*%
G04 Aperture macros list end*
%TA.AperFunction,ComponentPad*%
%ADD10RoundRect,0.250000X0.350000X0.625000X-0.350000X0.625000X-0.350000X-0.625000X0.350000X-0.625000X0*%
%TD*%
%TA.AperFunction,ComponentPad*%
%ADD11O,1.200000X1.750000*%
%TD*%
%TA.AperFunction,ComponentPad*%
%ADD12RoundRect,0.250000X-0.350000X-0.625000X0.350000X-0.625000X0.350000X0.625000X-0.350000X0.625000X0*%
%TD*%
%TA.AperFunction,ComponentPad*%
%ADD13C,1.650000*%
%TD*%
%TA.AperFunction,ComponentPad*%
%ADD14O,3.700000X4.500000*%
%TD*%
%TA.AperFunction,ViaPad*%
%ADD15C,0.800000*%
%TD*%
%TA.AperFunction,Conductor*%
%ADD16C,0.500000*%
%TD*%
G04 APERTURE END LIST*
D10*
%TO.P,J1,1,Pin_1*%
%TO.N,A*%
X137000000Y-126550000D03*
D11*
%TO.P,J1,2,Pin_2*%
%TO.N,B*%
X135000000Y-126550000D03*
%TO.P,J1,3,Pin_3*%
%TO.N,VCC*%
X133000000Y-126550000D03*
%TO.P,J1,4,Pin_4*%
%TO.N,GND*%
X131000000Y-126550000D03*
%TD*%
D12*
%TO.P,J2,1,Pin_1*%
%TO.N,SW1*%
X133000000Y-103450000D03*
D11*
%TO.P,J2,2,Pin_2*%
%TO.N,SW2*%
X135000000Y-103450000D03*
%TD*%
D13*
%TO.P,REF1,1,1*%
%TO.N,SW2*%
X136500000Y-107750000D03*
%TO.P,REF1,2,2*%
%TO.N,SW1*%
X131500000Y-107750000D03*
%TO.P,REF1,A1,A*%
%TO.N,A1*%
X136500000Y-122250000D03*
%TO.P,REF1,B1,B*%
%TO.N,B1*%
X131500000Y-122250000D03*
%TO.P,REF1,C1,C*%
%TO.N,GND*%
X134000000Y-122250000D03*
D14*
%TO.P,REF1,MH1,MH1*%
%TO.N,unconnected-(REF1-PadMH1)*%
X139700000Y-114750000D03*
%TO.P,REF1,MH2,MH2*%
%TO.N,unconnected-(REF1-PadMH2)*%
X128300000Y-114750000D03*
%TD*%
D15*
%TO.N,GND*%
X126000000Y-117500000D03*
X142000000Y-117500000D03*
%TD*%
D16*
%TO.N,GND*%
X126000000Y-117500000D02*
X125500000Y-117500000D01*
X125500000Y-117500000D02*
X125000000Y-118000000D01*
X125000000Y-118000000D02*
X125000000Y-121000000D01*
X125000000Y-121000000D02*
X130550000Y-126550000D01*
X130550000Y-126550000D02*
X131000000Y-126550000D01*
X142000000Y-117500000D02*
X126000000Y-117500000D01*
X134000000Y-122250000D02*
X134000000Y-123550000D01*
X134000000Y-123550000D02*
X131000000Y-126550000D01*
%TD*%
%TA.AperFunction,Conductor*%
%TO.N,GND*%
G36*
X142970057Y-101509500D02*
G01*
X142984858Y-101511805D01*
X142984862Y-101511805D01*
X142993731Y-101513186D01*
X143002633Y-101512022D01*
X143002637Y-101512022D01*
X143002733Y-101512009D01*
X143033170Y-101511738D01*
X143095375Y-101518746D01*
X143122882Y-101525024D01*
X143200071Y-101552034D01*
X143225491Y-101564276D01*
X143294738Y-101607787D01*
X143316797Y-101625379D01*
X143374621Y-101683203D01*
X143392213Y-101705262D01*
X143435724Y-101774509D01*
X143447966Y-101799930D01*
X143474975Y-101877117D01*
X143481254Y-101904624D01*
X143487522Y-101960251D01*
X143488305Y-101975897D01*
X143488196Y-101984855D01*
X143486814Y-101993729D01*
X143488454Y-102006269D01*
X143490936Y-102025250D01*
X143492000Y-102041588D01*
X143492000Y-127950673D01*
X143490500Y-127970057D01*
X143488195Y-127984858D01*
X143488195Y-127984862D01*
X143486814Y-127993731D01*
X143487978Y-128002633D01*
X143487978Y-128002637D01*
X143487991Y-128002733D01*
X143488262Y-128033170D01*
X143481254Y-128095375D01*
X143474975Y-128122885D01*
X143447966Y-128200071D01*
X143435724Y-128225491D01*
X143392213Y-128294738D01*
X143374621Y-128316797D01*
X143316797Y-128374621D01*
X143294738Y-128392213D01*
X143225491Y-128435724D01*
X143200070Y-128447966D01*
X143122883Y-128474975D01*
X143095376Y-128481254D01*
X143071428Y-128483952D01*
X143039744Y-128487522D01*
X143024103Y-128488305D01*
X143015145Y-128488196D01*
X143006271Y-128486814D01*
X142974750Y-128490936D01*
X142958412Y-128492000D01*
X125049327Y-128492000D01*
X125029943Y-128490500D01*
X125015142Y-128488195D01*
X125015138Y-128488195D01*
X125006269Y-128486814D01*
X124997367Y-128487978D01*
X124997363Y-128487978D01*
X124997267Y-128487991D01*
X124966830Y-128488262D01*
X124904625Y-128481254D01*
X124877118Y-128474976D01*
X124799928Y-128447966D01*
X124774509Y-128435724D01*
X124705262Y-128392213D01*
X124683203Y-128374621D01*
X124625379Y-128316797D01*
X124607787Y-128294738D01*
X124564276Y-128225491D01*
X124552034Y-128200070D01*
X124525025Y-128122883D01*
X124518746Y-128095376D01*
X124512478Y-128039749D01*
X124511695Y-128024103D01*
X124511804Y-128015145D01*
X124513186Y-128006271D01*
X124509064Y-127974749D01*
X124508000Y-127958412D01*
X124508000Y-126874832D01*
X129892000Y-126874832D01*
X129892285Y-126880808D01*
X129906471Y-127029494D01*
X129908730Y-127041228D01*
X129964872Y-127232599D01*
X129969302Y-127243675D01*
X130060619Y-127420978D01*
X130067069Y-127431024D01*
X130190262Y-127587857D01*
X130198499Y-127596506D01*
X130349123Y-127727212D01*
X130358847Y-127734147D01*
X130531467Y-127834010D01*
X130542331Y-127838984D01*
X130730727Y-127904407D01*
X130731716Y-127904648D01*
X130742008Y-127903180D01*
X130746000Y-127889615D01*
X130746000Y-127885402D01*
X131254000Y-127885402D01*
X131257973Y-127898933D01*
X131267399Y-127900288D01*
X131356537Y-127878806D01*
X131367832Y-127874917D01*
X131549382Y-127792371D01*
X131559724Y-127786424D01*
X131722397Y-127671032D01*
X131731425Y-127663239D01*
X131869342Y-127519169D01*
X131876741Y-127509800D01*
X131894418Y-127482423D01*
X131948172Y-127436045D01*
X132018468Y-127426091D01*
X132082985Y-127455722D01*
X132099356Y-127472937D01*
X132193604Y-127592920D01*
X132198135Y-127596852D01*
X132198138Y-127596855D01*
X132283620Y-127671032D01*
X132353363Y-127731552D01*
X132358549Y-127734552D01*
X132358553Y-127734555D01*
X132454957Y-127790326D01*
X132536454Y-127837473D01*
X132736271Y-127906861D01*
X132742206Y-127907722D01*
X132742208Y-127907722D01*
X132939664Y-127936352D01*
X132939667Y-127936352D01*
X132945604Y-127937213D01*
X133156899Y-127927433D01*
X133288077Y-127895819D01*
X133356701Y-127879281D01*
X133356703Y-127879280D01*
X133362534Y-127877875D01*
X133367992Y-127875393D01*
X133367996Y-127875392D01*
X133483041Y-127823084D01*
X133555087Y-127790326D01*
X133727611Y-127667946D01*
X133873881Y-127515150D01*
X133889610Y-127490791D01*
X133894746Y-127482837D01*
X133948501Y-127436460D01*
X134018797Y-127426507D01*
X134083314Y-127456139D01*
X134099681Y-127473351D01*
X134193604Y-127592920D01*
X134198135Y-127596852D01*
X134198138Y-127596855D01*
X134283620Y-127671032D01*
X134353363Y-127731552D01*
X134358549Y-127734552D01*
X134358553Y-127734555D01*
X134454957Y-127790326D01*
X134536454Y-127837473D01*
X134736271Y-127906861D01*
X134742206Y-127907722D01*
X134742208Y-127907722D01*
X134939664Y-127936352D01*
X134939667Y-127936352D01*
X134945604Y-127937213D01*
X135156899Y-127927433D01*
X135288077Y-127895819D01*
X135356701Y-127879281D01*
X135356703Y-127879280D01*
X135362534Y-127877875D01*
X135367992Y-127875393D01*
X135367996Y-127875392D01*
X135483041Y-127823084D01*
X135555087Y-127790326D01*
X135727611Y-127667946D01*
X135731753Y-127663619D01*
X135731759Y-127663614D01*
X135818806Y-127572683D01*
X135880361Y-127537306D01*
X135951270Y-127540825D01*
X136009021Y-127582121D01*
X136016965Y-127593504D01*
X136051522Y-127649348D01*
X136176697Y-127774305D01*
X136182927Y-127778145D01*
X136182928Y-127778146D01*
X136320090Y-127862694D01*
X136327262Y-127867115D01*
X136363942Y-127879281D01*
X136488611Y-127920632D01*
X136488613Y-127920632D01*
X136495139Y-127922797D01*
X136501975Y-127923497D01*
X136501978Y-127923498D01*
X136540386Y-127927433D01*
X136599600Y-127933500D01*
X137400400Y-127933500D01*
X137403646Y-127933163D01*
X137403650Y-127933163D01*
X137499308Y-127923238D01*
X137499312Y-127923237D01*
X137506166Y-127922526D01*
X137512702Y-127920345D01*
X137512704Y-127920345D01*
X137648867Y-127874917D01*
X137673946Y-127866550D01*
X137824348Y-127773478D01*
X137949305Y-127648303D01*
X137986565Y-127587857D01*
X138038275Y-127503968D01*
X138038276Y-127503966D01*
X138042115Y-127497738D01*
X138097797Y-127329861D01*
X138108500Y-127225400D01*
X138108500Y-125874600D01*
X138097526Y-125768834D01*
X138041550Y-125601054D01*
X137948478Y-125450652D01*
X137823303Y-125325695D01*
X137817072Y-125321854D01*
X137678968Y-125236725D01*
X137678966Y-125236724D01*
X137672738Y-125232885D01*
X137564005Y-125196820D01*
X137511389Y-125179368D01*
X137511387Y-125179368D01*
X137504861Y-125177203D01*
X137498025Y-125176503D01*
X137498022Y-125176502D01*
X137454969Y-125172091D01*
X137400400Y-125166500D01*
X136599600Y-125166500D01*
X136596354Y-125166837D01*
X136596350Y-125166837D01*
X136500692Y-125176762D01*
X136500688Y-125176763D01*
X136493834Y-125177474D01*
X136487298Y-125179655D01*
X136487296Y-125179655D01*
X136423117Y-125201067D01*
X136326054Y-125233450D01*
X136175652Y-125326522D01*
X136050695Y-125451697D01*
X136046855Y-125457927D01*
X136046854Y-125457928D01*
X136018926Y-125503236D01*
X135966154Y-125550729D01*
X135896082Y-125562153D01*
X135830958Y-125533879D01*
X135812582Y-125514955D01*
X135806396Y-125507080D01*
X135801865Y-125503148D01*
X135801862Y-125503145D01*
X135651167Y-125372379D01*
X135646637Y-125368448D01*
X135641451Y-125365448D01*
X135641447Y-125365445D01*
X135468742Y-125265533D01*
X135463546Y-125262527D01*
X135263729Y-125193139D01*
X135257794Y-125192278D01*
X135257792Y-125192278D01*
X135060336Y-125163648D01*
X135060333Y-125163648D01*
X135054396Y-125162787D01*
X134843101Y-125172567D01*
X134730466Y-125199712D01*
X134643299Y-125220719D01*
X134643297Y-125220720D01*
X134637466Y-125222125D01*
X134632008Y-125224607D01*
X134632004Y-125224608D01*
X134540990Y-125265990D01*
X134444913Y-125309674D01*
X134272389Y-125432054D01*
X134126119Y-125584850D01*
X134122866Y-125589888D01*
X134105254Y-125617163D01*
X134051499Y-125663540D01*
X133981203Y-125673493D01*
X133916686Y-125643861D01*
X133900317Y-125626647D01*
X133881163Y-125602262D01*
X133806396Y-125507080D01*
X133801865Y-125503148D01*
X133801862Y-125503145D01*
X133651167Y-125372379D01*
X133646637Y-125368448D01*
X133641451Y-125365448D01*
X133641447Y-125365445D01*
X133468742Y-125265533D01*
X133463546Y-125262527D01*
X133263729Y-125193139D01*
X133257794Y-125192278D01*
X133257792Y-125192278D01*
X133060336Y-125163648D01*
X133060333Y-125163648D01*
X133054396Y-125162787D01*
X132843101Y-125172567D01*
X132730466Y-125199712D01*
X132643299Y-125220719D01*
X132643297Y-125220720D01*
X132637466Y-125222125D01*
X132632008Y-125224607D01*
X132632004Y-125224608D01*
X132540990Y-125265990D01*
X132444913Y-125309674D01*
X132272389Y-125432054D01*
X132126119Y-125584850D01*
X132122870Y-125589881D01*
X132122865Y-125589888D01*
X132104967Y-125617607D01*
X132051211Y-125663984D01*
X131980915Y-125673937D01*
X131916398Y-125644304D01*
X131900030Y-125627091D01*
X131809738Y-125512143D01*
X131801501Y-125503494D01*
X131650877Y-125372788D01*
X131641153Y-125365853D01*
X131468533Y-125265990D01*
X131457669Y-125261016D01*
X131269273Y-125195593D01*
X131268284Y-125195352D01*
X131257992Y-125196820D01*
X131254000Y-125210385D01*
X131254000Y-127885402D01*
X130746000Y-127885402D01*
X130746000Y-126822115D01*
X130741525Y-126806876D01*
X130740135Y-126805671D01*
X130732452Y-126804000D01*
X129910115Y-126804000D01*
X129894876Y-126808475D01*
X129893671Y-126809865D01*
X129892000Y-126817548D01*
X129892000Y-126874832D01*
X124508000Y-126874832D01*
X124508000Y-126277885D01*
X129892000Y-126277885D01*
X129896475Y-126293124D01*
X129897865Y-126294329D01*
X129905548Y-126296000D01*
X130727885Y-126296000D01*
X130743124Y-126291525D01*
X130744329Y-126290135D01*
X130746000Y-126282452D01*
X130746000Y-125214598D01*
X130742027Y-125201067D01*
X130732601Y-125199712D01*
X130643463Y-125221194D01*
X130632168Y-125225083D01*
X130450618Y-125307629D01*
X130440276Y-125313576D01*
X130277603Y-125428968D01*
X130268575Y-125436761D01*
X130130658Y-125580831D01*
X130123262Y-125590196D01*
X130015079Y-125757741D01*
X130009583Y-125768345D01*
X129935039Y-125953312D01*
X129931645Y-125964770D01*
X129893143Y-126161928D01*
X129892066Y-126170791D01*
X129892000Y-126173500D01*
X129892000Y-126277885D01*
X124508000Y-126277885D01*
X124508000Y-122250000D01*
X130161406Y-122250000D01*
X130181742Y-122482444D01*
X130242133Y-122707826D01*
X130244455Y-122712806D01*
X130244456Y-122712808D01*
X130338418Y-122914310D01*
X130338421Y-122914315D01*
X130340744Y-122919297D01*
X130474578Y-123110432D01*
X130639568Y-123275422D01*
X130644076Y-123278579D01*
X130644079Y-123278581D01*
X130826194Y-123406099D01*
X130830703Y-123409256D01*
X130835685Y-123411579D01*
X130835690Y-123411582D01*
X131036180Y-123505072D01*
X131042174Y-123507867D01*
X131047482Y-123509289D01*
X131047484Y-123509290D01*
X131262241Y-123566834D01*
X131262243Y-123566834D01*
X131267556Y-123568258D01*
X131500000Y-123588594D01*
X131732444Y-123568258D01*
X131737757Y-123566834D01*
X131737759Y-123566834D01*
X131952516Y-123509290D01*
X131952518Y-123509289D01*
X131957826Y-123507867D01*
X131963820Y-123505072D01*
X132164310Y-123411582D01*
X132164315Y-123411579D01*
X132169297Y-123409256D01*
X132173806Y-123406099D01*
X132248193Y-123354013D01*
X133260542Y-123354013D01*
X133269838Y-123366028D01*
X133326446Y-123405665D01*
X133335941Y-123411148D01*
X133537364Y-123505072D01*
X133547656Y-123508818D01*
X133762328Y-123566339D01*
X133773123Y-123568242D01*
X133994525Y-123587613D01*
X134005475Y-123587613D01*
X134226877Y-123568242D01*
X134237672Y-123566339D01*
X134452344Y-123508818D01*
X134462636Y-123505072D01*
X134664059Y-123411148D01*
X134673554Y-123405665D01*
X134731000Y-123365441D01*
X134739375Y-123354964D01*
X134732307Y-123341517D01*
X134012812Y-122622022D01*
X133998868Y-122614408D01*
X133997035Y-122614539D01*
X133990420Y-122618790D01*
X133266972Y-123342238D01*
X133260542Y-123354013D01*
X132248193Y-123354013D01*
X132355921Y-123278581D01*
X132355924Y-123278579D01*
X132360432Y-123275422D01*
X132525422Y-123110432D01*
X132647092Y-122936669D01*
X132702549Y-122892341D01*
X132773168Y-122885032D01*
X132836529Y-122917063D01*
X132853518Y-122936669D01*
X132884559Y-122981000D01*
X132895036Y-122989375D01*
X132908483Y-122982307D01*
X133627978Y-122262812D01*
X133634356Y-122251132D01*
X134364408Y-122251132D01*
X134364539Y-122252965D01*
X134368790Y-122259580D01*
X135092238Y-122983028D01*
X135104013Y-122989458D01*
X135116028Y-122980162D01*
X135146482Y-122936669D01*
X135201939Y-122892341D01*
X135272558Y-122885032D01*
X135335919Y-122917063D01*
X135352908Y-122936669D01*
X135474578Y-123110432D01*
X135639568Y-123275422D01*
X135644076Y-123278579D01*
X135644079Y-123278581D01*
X135826194Y-123406099D01*
X135830703Y-123409256D01*
X135835685Y-123411579D01*
X135835690Y-123411582D01*
X136036180Y-123505072D01*
X136042174Y-123507867D01*
X136047482Y-123509289D01*
X136047484Y-123509290D01*
X136262241Y-123566834D01*
X136262243Y-123566834D01*
X136267556Y-123568258D01*
X136500000Y-123588594D01*
X136732444Y-123568258D01*
X136737757Y-123566834D01*
X136737759Y-123566834D01*
X136952516Y-123509290D01*
X136952518Y-123509289D01*
X136957826Y-123507867D01*
X136963820Y-123505072D01*
X137164310Y-123411582D01*
X137164315Y-123411579D01*
X137169297Y-123409256D01*
X137173806Y-123406099D01*
X137355921Y-123278581D01*
X137355924Y-123278579D01*
X137360432Y-123275422D01*
X137525422Y-123110432D01*
X137659256Y-122919297D01*
X137661579Y-122914315D01*
X137661582Y-122914310D01*
X137755544Y-122712808D01*
X137755545Y-122712806D01*
X137757867Y-122707826D01*
X137818258Y-122482444D01*
X137838594Y-122250000D01*
X137818258Y-122017556D01*
X137757867Y-121792174D01*
X137755544Y-121787192D01*
X137661582Y-121585690D01*
X137661579Y-121585685D01*
X137659256Y-121580703D01*
X137525422Y-121389568D01*
X137360432Y-121224578D01*
X137355924Y-121221421D01*
X137355921Y-121221419D01*
X137173806Y-121093901D01*
X137173804Y-121093900D01*
X137169297Y-121090744D01*
X137164315Y-121088421D01*
X137164310Y-121088418D01*
X136962808Y-120994456D01*
X136962806Y-120994455D01*
X136957826Y-120992133D01*
X136952518Y-120990711D01*
X136952516Y-120990710D01*
X136737759Y-120933166D01*
X136737757Y-120933166D01*
X136732444Y-120931742D01*
X136500000Y-120911406D01*
X136267556Y-120931742D01*
X136262243Y-120933166D01*
X136262241Y-120933166D01*
X136047484Y-120990710D01*
X136047482Y-120990711D01*
X136042174Y-120992133D01*
X136037194Y-120994455D01*
X136037192Y-120994456D01*
X135835690Y-121088418D01*
X135835685Y-121088421D01*
X135830703Y-121090744D01*
X135826196Y-121093900D01*
X135826194Y-121093901D01*
X135644079Y-121221419D01*
X135644076Y-121221421D01*
X135639568Y-121224578D01*
X135474578Y-121389568D01*
X135471421Y-121394076D01*
X135471419Y-121394079D01*
X135352908Y-121563331D01*
X135297451Y-121607659D01*
X135226832Y-121614968D01*
X135163471Y-121582937D01*
X135146482Y-121563331D01*
X135115441Y-121519000D01*
X135104964Y-121510625D01*
X135091517Y-121517693D01*
X134372022Y-122237188D01*
X134364408Y-122251132D01*
X133634356Y-122251132D01*
X133635592Y-122248868D01*
X133635461Y-122247035D01*
X133631210Y-122240420D01*
X132907762Y-121516972D01*
X132895987Y-121510542D01*
X132883972Y-121519838D01*
X132853518Y-121563331D01*
X132798061Y-121607659D01*
X132727442Y-121614968D01*
X132664081Y-121582937D01*
X132647092Y-121563331D01*
X132528581Y-121394079D01*
X132528579Y-121394076D01*
X132525422Y-121389568D01*
X132360432Y-121224578D01*
X132355924Y-121221421D01*
X132355921Y-121221419D01*
X132246835Y-121145036D01*
X133260625Y-121145036D01*
X133267693Y-121158483D01*
X133987188Y-121877978D01*
X134001132Y-121885592D01*
X134002965Y-121885461D01*
X134009580Y-121881210D01*
X134733028Y-121157762D01*
X134739458Y-121145987D01*
X134730162Y-121133972D01*
X134673554Y-121094335D01*
X134664059Y-121088852D01*
X134462636Y-120994928D01*
X134452344Y-120991182D01*
X134237672Y-120933661D01*
X134226877Y-120931758D01*
X134005475Y-120912387D01*
X133994525Y-120912387D01*
X133773123Y-120931758D01*
X133762328Y-120933661D01*
X133547656Y-120991182D01*
X133537364Y-120994928D01*
X133335941Y-121088852D01*
X133326446Y-121094335D01*
X133269000Y-121134559D01*
X133260625Y-121145036D01*
X132246835Y-121145036D01*
X132173806Y-121093901D01*
X132173804Y-121093900D01*
X132169297Y-121090744D01*
X132164315Y-121088421D01*
X132164310Y-121088418D01*
X131962808Y-120994456D01*
X131962806Y-120994455D01*
X131957826Y-120992133D01*
X131952518Y-120990711D01*
X131952516Y-120990710D01*
X131737759Y-120933166D01*
X131737757Y-120933166D01*
X131732444Y-120931742D01*
X131500000Y-120911406D01*
X131267556Y-120931742D01*
X131262243Y-120933166D01*
X131262241Y-120933166D01*
X131047484Y-120990710D01*
X131047482Y-120990711D01*
X131042174Y-120992133D01*
X131037194Y-120994455D01*
X131037192Y-120994456D01*
X130835690Y-121088418D01*
X130835685Y-121088421D01*
X130830703Y-121090744D01*
X130826196Y-121093900D01*
X130826194Y-121093901D01*
X130644079Y-121221419D01*
X130644076Y-121221421D01*
X130639568Y-121224578D01*
X130474578Y-121389568D01*
X130340744Y-121580703D01*
X130338421Y-121585685D01*
X130338418Y-121585690D01*
X130244456Y-121787192D01*
X130242133Y-121792174D01*
X130181742Y-122017556D01*
X130161406Y-122250000D01*
X124508000Y-122250000D01*
X124508000Y-115227214D01*
X125941500Y-115227214D01*
X125956660Y-115458507D01*
X126016975Y-115761735D01*
X126116354Y-116054496D01*
X126118177Y-116058192D01*
X126118180Y-116058200D01*
X126228721Y-116282352D01*
X126253096Y-116331780D01*
X126424861Y-116588845D01*
X126427575Y-116591939D01*
X126427579Y-116591945D01*
X126626001Y-116818201D01*
X126628710Y-116821290D01*
X126631799Y-116823999D01*
X126858055Y-117022421D01*
X126858061Y-117022425D01*
X126861155Y-117025139D01*
X126864581Y-117027428D01*
X126864586Y-117027432D01*
X127058318Y-117156879D01*
X127118219Y-117196904D01*
X127121918Y-117198728D01*
X127121923Y-117198731D01*
X127264435Y-117269010D01*
X127395504Y-117333646D01*
X127399409Y-117334971D01*
X127399410Y-117334972D01*
X127684358Y-117431699D01*
X127684361Y-117431700D01*
X127688265Y-117433025D01*
X127914961Y-117478117D01*
X127987450Y-117492536D01*
X127987453Y-117492536D01*
X127991493Y-117493340D01*
X127995604Y-117493609D01*
X127995608Y-117493610D01*
X128295881Y-117513291D01*
X128300000Y-117513561D01*
X128304119Y-117513291D01*
X128604392Y-117493610D01*
X128604396Y-117493609D01*
X128608507Y-117493340D01*
X128612547Y-117492536D01*
X128612550Y-117492536D01*
X128685039Y-117478117D01*
X128911735Y-117433025D01*
X128915639Y-117431700D01*
X128915642Y-117431699D01*
X129200581Y-117334975D01*
X129204496Y-117333646D01*
X129208195Y-117331822D01*
X129208200Y-117331820D01*
X129478077Y-117198730D01*
X129481780Y-117196904D01*
X129485215Y-117194609D01*
X129735414Y-117027432D01*
X129735419Y-117027428D01*
X129738845Y-117025139D01*
X129741939Y-117022425D01*
X129741945Y-117022421D01*
X129968201Y-116823999D01*
X129971290Y-116821290D01*
X129973999Y-116818201D01*
X130172421Y-116591945D01*
X130172425Y-116591939D01*
X130175139Y-116588845D01*
X130346904Y-116331780D01*
X130371279Y-116282352D01*
X130481820Y-116058200D01*
X130481823Y-116058192D01*
X130483646Y-116054496D01*
X130583025Y-115761735D01*
X130643340Y-115458507D01*
X130658500Y-115227214D01*
X137341500Y-115227214D01*
X137356660Y-115458507D01*
X137416975Y-115761735D01*
X137516354Y-116054496D01*
X137518177Y-116058192D01*
X137518180Y-116058200D01*
X137628721Y-116282352D01*
X137653096Y-116331780D01*
X137824861Y-116588845D01*
X137827575Y-116591939D01*
X137827579Y-116591945D01*
X138026001Y-116818201D01*
X138028710Y-116821290D01*
X138031799Y-116823999D01*
X138258055Y-117022421D01*
X138258061Y-117022425D01*
X138261155Y-117025139D01*
X138264581Y-117027428D01*
X138264586Y-117027432D01*
X138458318Y-117156879D01*
X138518219Y-117196904D01*
X138521918Y-117198728D01*
X138521923Y-117198731D01*
X138664435Y-117269010D01*
X138795504Y-117333646D01*
X138799409Y-117334971D01*
X138799410Y-117334972D01*
X139084358Y-117431699D01*
X139084361Y-117431700D01*
X139088265Y-117433025D01*
X139314961Y-117478117D01*
X139387450Y-117492536D01*
X139387453Y-117492536D01*
X139391493Y-117493340D01*
X139395604Y-117493609D01*
X139395608Y-117493610D01*
X139695881Y-117513291D01*
X139700000Y-117513561D01*
X139704119Y-117513291D01*
X140004392Y-117493610D01*
X140004396Y-117493609D01*
X140008507Y-117493340D01*
X140012547Y-117492536D01*
X140012550Y-117492536D01*
X140085039Y-117478117D01*
X140311735Y-117433025D01*
X140315639Y-117431700D01*
X140315642Y-117431699D01*
X140600581Y-117334975D01*
X140604496Y-117333646D01*
X140608195Y-117331822D01*
X140608200Y-117331820D01*
X140878077Y-117198730D01*
X140881780Y-117196904D01*
X140885215Y-117194609D01*
X141135414Y-117027432D01*
X141135419Y-117027428D01*
X141138845Y-117025139D01*
X141141939Y-117022425D01*
X141141945Y-117022421D01*
X141368201Y-116823999D01*
X141371290Y-116821290D01*
X141373999Y-116818201D01*
X141572421Y-116591945D01*
X141572425Y-116591939D01*
X141575139Y-116588845D01*
X141746904Y-116331780D01*
X141771279Y-116282352D01*
X141881820Y-116058200D01*
X141881823Y-116058192D01*
X141883646Y-116054496D01*
X141983025Y-115761735D01*
X142043340Y-115458507D01*
X142058500Y-115227214D01*
X142058500Y-114272786D01*
X142043340Y-114041493D01*
X141983025Y-113738265D01*
X141883646Y-113445504D01*
X141881823Y-113441808D01*
X141881820Y-113441800D01*
X141748730Y-113171923D01*
X141746904Y-113168220D01*
X141575139Y-112911155D01*
X141572425Y-112908061D01*
X141572421Y-112908055D01*
X141373999Y-112681799D01*
X141371290Y-112678710D01*
X141368201Y-112676001D01*
X141141945Y-112477579D01*
X141141939Y-112477575D01*
X141138845Y-112474861D01*
X141135419Y-112472572D01*
X141135414Y-112472568D01*
X140941682Y-112343121D01*
X140881781Y-112303096D01*
X140878082Y-112301272D01*
X140878077Y-112301269D01*
X140735565Y-112230990D01*
X140604496Y-112166354D01*
X140600581Y-112165025D01*
X140315642Y-112068301D01*
X140315639Y-112068300D01*
X140311735Y-112066975D01*
X140085039Y-112021883D01*
X140012550Y-112007464D01*
X140012547Y-112007464D01*
X140008507Y-112006660D01*
X140004396Y-112006391D01*
X140004392Y-112006390D01*
X139704119Y-111986709D01*
X139700000Y-111986439D01*
X139695881Y-111986709D01*
X139395608Y-112006390D01*
X139395604Y-112006391D01*
X139391493Y-112006660D01*
X139387453Y-112007464D01*
X139387450Y-112007464D01*
X139314961Y-112021883D01*
X139088265Y-112066975D01*
X139084361Y-112068300D01*
X139084358Y-112068301D01*
X138799419Y-112165025D01*
X138795504Y-112166354D01*
X138791808Y-112168177D01*
X138791800Y-112168180D01*
X138567648Y-112278721D01*
X138518220Y-112303096D01*
X138514787Y-112305390D01*
X138514785Y-112305391D01*
X138264586Y-112472568D01*
X138264581Y-112472572D01*
X138261155Y-112474861D01*
X138258061Y-112477575D01*
X138258055Y-112477579D01*
X138031799Y-112676001D01*
X138028710Y-112678710D01*
X138026001Y-112681799D01*
X137827579Y-112908055D01*
X137827575Y-112908061D01*
X137824861Y-112911155D01*
X137653096Y-113168220D01*
X137651270Y-113171923D01*
X137518180Y-113441800D01*
X137518177Y-113441808D01*
X137516354Y-113445504D01*
X137416975Y-113738265D01*
X137356660Y-114041493D01*
X137341500Y-114272786D01*
X137341500Y-115227214D01*
X130658500Y-115227214D01*
X130658500Y-114272786D01*
X130643340Y-114041493D01*
X130583025Y-113738265D01*
X130483646Y-113445504D01*
X130481823Y-113441808D01*
X130481820Y-113441800D01*
X130348730Y-113171923D01*
X130346904Y-113168220D01*
X130175139Y-112911155D01*
X130172425Y-112908061D01*
X130172421Y-112908055D01*
X129973999Y-112681799D01*
X129971290Y-112678710D01*
X129968201Y-112676001D01*
X129741945Y-112477579D01*
X129741939Y-112477575D01*
X129738845Y-112474861D01*
X129735419Y-112472572D01*
X129735414Y-112472568D01*
X129541682Y-112343121D01*
X129481781Y-112303096D01*
X129478082Y-112301272D01*
X129478077Y-112301269D01*
X129335565Y-112230990D01*
X129204496Y-112166354D01*
X129200581Y-112165025D01*
X128915642Y-112068301D01*
X128915639Y-112068300D01*
X128911735Y-112066975D01*
X128685039Y-112021883D01*
X128612550Y-112007464D01*
X128612547Y-112007464D01*
X128608507Y-112006660D01*
X128604396Y-112006391D01*
X128604392Y-112006390D01*
X128304119Y-111986709D01*
X128300000Y-111986439D01*
X128295881Y-111986709D01*
X127995608Y-112006390D01*
X127995604Y-112006391D01*
X127991493Y-112006660D01*
X127987453Y-112007464D01*
X127987450Y-112007464D01*
X127914961Y-112021883D01*
X127688265Y-112066975D01*
X127684361Y-112068300D01*
X127684358Y-112068301D01*
X127399419Y-112165025D01*
X127395504Y-112166354D01*
X127391808Y-112168177D01*
X127391800Y-112168180D01*
X127167648Y-112278721D01*
X127118220Y-112303096D01*
X127114787Y-112305390D01*
X127114785Y-112305391D01*
X126864586Y-112472568D01*
X126864581Y-112472572D01*
X126861155Y-112474861D01*
X126858061Y-112477575D01*
X126858055Y-112477579D01*
X126631799Y-112676001D01*
X126628710Y-112678710D01*
X126626001Y-112681799D01*
X126427579Y-112908055D01*
X126427575Y-112908061D01*
X126424861Y-112911155D01*
X126253096Y-113168220D01*
X126251270Y-113171923D01*
X126118180Y-113441800D01*
X126118177Y-113441808D01*
X126116354Y-113445504D01*
X126016975Y-113738265D01*
X125956660Y-114041493D01*
X125941500Y-114272786D01*
X125941500Y-115227214D01*
X124508000Y-115227214D01*
X124508000Y-107750000D01*
X130161406Y-107750000D01*
X130181742Y-107982444D01*
X130242133Y-108207826D01*
X130244455Y-108212806D01*
X130244456Y-108212808D01*
X130338418Y-108414310D01*
X130338421Y-108414315D01*
X130340744Y-108419297D01*
X130474578Y-108610432D01*
X130639568Y-108775422D01*
X130644076Y-108778579D01*
X130644079Y-108778581D01*
X130826194Y-108906099D01*
X130830703Y-108909256D01*
X130835685Y-108911579D01*
X130835690Y-108911582D01*
X131037192Y-109005544D01*
X131042174Y-109007867D01*
X131047482Y-109009289D01*
X131047484Y-109009290D01*
X131262241Y-109066834D01*
X131262243Y-109066834D01*
X131267556Y-109068258D01*
X131500000Y-109088594D01*
X131732444Y-109068258D01*
X131737757Y-109066834D01*
X131737759Y-109066834D01*
X131952516Y-109009290D01*
X131952518Y-109009289D01*
X131957826Y-109007867D01*
X131962808Y-109005544D01*
X132164310Y-108911582D01*
X132164315Y-108911579D01*
X132169297Y-108909256D01*
X132173806Y-108906099D01*
X132355921Y-108778581D01*
X132355924Y-108778579D01*
X132360432Y-108775422D01*
X132525422Y-108610432D01*
X132659256Y-108419297D01*
X132661579Y-108414315D01*
X132661582Y-108414310D01*
X132755544Y-108212808D01*
X132755545Y-108212806D01*
X132757867Y-108207826D01*
X132818258Y-107982444D01*
X132838594Y-107750000D01*
X135161406Y-107750000D01*
X135181742Y-107982444D01*
X135242133Y-108207826D01*
X135244455Y-108212806D01*
X135244456Y-108212808D01*
X135338418Y-108414310D01*
X135338421Y-108414315D01*
X135340744Y-108419297D01*
X135474578Y-108610432D01*
X135639568Y-108775422D01*
X135644076Y-108778579D01*
X135644079Y-108778581D01*
X135826194Y-108906099D01*
X135830703Y-108909256D01*
X135835685Y-108911579D01*
X135835690Y-108911582D01*
X136037192Y-109005544D01*
X136042174Y-109007867D01*
X136047482Y-109009289D01*
X136047484Y-109009290D01*
X136262241Y-109066834D01*
X136262243Y-109066834D01*
X136267556Y-109068258D01*
X136500000Y-109088594D01*
X136732444Y-109068258D01*
X136737757Y-109066834D01*
X136737759Y-109066834D01*
X136952516Y-109009290D01*
X136952518Y-109009289D01*
X136957826Y-109007867D01*
X136962808Y-109005544D01*
X137164310Y-108911582D01*
X137164315Y-108911579D01*
X137169297Y-108909256D01*
X137173806Y-108906099D01*
X137355921Y-108778581D01*
X137355924Y-108778579D01*
X137360432Y-108775422D01*
X137525422Y-108610432D01*
X137659256Y-108419297D01*
X137661579Y-108414315D01*
X137661582Y-108414310D01*
X137755544Y-108212808D01*
X137755545Y-108212806D01*
X137757867Y-108207826D01*
X137818258Y-107982444D01*
X137838594Y-107750000D01*
X137818258Y-107517556D01*
X137757867Y-107292174D01*
X137755544Y-107287192D01*
X137661582Y-107085690D01*
X137661579Y-107085685D01*
X137659256Y-107080703D01*
X137525422Y-106889568D01*
X137360432Y-106724578D01*
X137355924Y-106721421D01*
X137355921Y-106721419D01*
X137173806Y-106593901D01*
X137173804Y-106593900D01*
X137169297Y-106590744D01*
X137164315Y-106588421D01*
X137164310Y-106588418D01*
X136962808Y-106494456D01*
X136962806Y-106494455D01*
X136957826Y-106492133D01*
X136952518Y-106490711D01*
X136952516Y-106490710D01*
X136737759Y-106433166D01*
X136737757Y-106433166D01*
X136732444Y-106431742D01*
X136500000Y-106411406D01*
X136267556Y-106431742D01*
X136262243Y-106433166D01*
X136262241Y-106433166D01*
X136047484Y-106490710D01*
X136047482Y-106490711D01*
X136042174Y-106492133D01*
X136037194Y-106494455D01*
X136037192Y-106494456D01*
X135835690Y-106588418D01*
X135835685Y-106588421D01*
X135830703Y-106590744D01*
X135826196Y-106593900D01*
X135826194Y-106593901D01*
X135644079Y-106721419D01*
X135644076Y-106721421D01*
X135639568Y-106724578D01*
X135474578Y-106889568D01*
X135340744Y-107080703D01*
X135338421Y-107085685D01*
X135338418Y-107085690D01*
X135244456Y-107287192D01*
X135242133Y-107292174D01*
X135181742Y-107517556D01*
X135161406Y-107750000D01*
X132838594Y-107750000D01*
X132818258Y-107517556D01*
X132757867Y-107292174D01*
X132755544Y-107287192D01*
X132661582Y-107085690D01*
X132661579Y-107085685D01*
X132659256Y-107080703D01*
X132525422Y-106889568D01*
X132360432Y-106724578D01*
X132355924Y-106721421D01*
X132355921Y-106721419D01*
X132173806Y-106593901D01*
X132173804Y-106593900D01*
X132169297Y-106590744D01*
X132164315Y-106588421D01*
X132164310Y-106588418D01*
X131962808Y-106494456D01*
X131962806Y-106494455D01*
X131957826Y-106492133D01*
X131952518Y-106490711D01*
X131952516Y-106490710D01*
X131737759Y-106433166D01*
X131737757Y-106433166D01*
X131732444Y-106431742D01*
X131500000Y-106411406D01*
X131267556Y-106431742D01*
X131262243Y-106433166D01*
X131262241Y-106433166D01*
X131047484Y-106490710D01*
X131047482Y-106490711D01*
X131042174Y-106492133D01*
X131037194Y-106494455D01*
X131037192Y-106494456D01*
X130835690Y-106588418D01*
X130835685Y-106588421D01*
X130830703Y-106590744D01*
X130826196Y-106593900D01*
X130826194Y-106593901D01*
X130644079Y-106721419D01*
X130644076Y-106721421D01*
X130639568Y-106724578D01*
X130474578Y-106889568D01*
X130340744Y-107080703D01*
X130338421Y-107085685D01*
X130338418Y-107085690D01*
X130244456Y-107287192D01*
X130242133Y-107292174D01*
X130181742Y-107517556D01*
X130161406Y-107750000D01*
X124508000Y-107750000D01*
X124508000Y-104125400D01*
X131891500Y-104125400D01*
X131902474Y-104231166D01*
X131904655Y-104237702D01*
X131904655Y-104237704D01*
X131935135Y-104329064D01*
X131958450Y-104398946D01*
X132051522Y-104549348D01*
X132176697Y-104674305D01*
X132182927Y-104678145D01*
X132182928Y-104678146D01*
X132320090Y-104762694D01*
X132327262Y-104767115D01*
X132352217Y-104775392D01*
X132488611Y-104820632D01*
X132488613Y-104820632D01*
X132495139Y-104822797D01*
X132501975Y-104823497D01*
X132501978Y-104823498D01*
X132540386Y-104827433D01*
X132599600Y-104833500D01*
X133400400Y-104833500D01*
X133403646Y-104833163D01*
X133403650Y-104833163D01*
X133499308Y-104823238D01*
X133499312Y-104823237D01*
X133506166Y-104822526D01*
X133512702Y-104820345D01*
X133512704Y-104820345D01*
X133647443Y-104775392D01*
X133673946Y-104766550D01*
X133824348Y-104673478D01*
X133949305Y-104548303D01*
X133981075Y-104496764D01*
X134033846Y-104449271D01*
X134103918Y-104437847D01*
X134169042Y-104466121D01*
X134187418Y-104485045D01*
X134193604Y-104492920D01*
X134198135Y-104496852D01*
X134198138Y-104496855D01*
X134284058Y-104571412D01*
X134353363Y-104631552D01*
X134358549Y-104634552D01*
X134358553Y-104634555D01*
X134454957Y-104690326D01*
X134536454Y-104737473D01*
X134736271Y-104806861D01*
X134742206Y-104807722D01*
X134742208Y-104807722D01*
X134939664Y-104836352D01*
X134939667Y-104836352D01*
X134945604Y-104837213D01*
X135156899Y-104827433D01*
X135288077Y-104795819D01*
X135356701Y-104779281D01*
X135356703Y-104779280D01*
X135362534Y-104777875D01*
X135367992Y-104775393D01*
X135367996Y-104775392D01*
X135483041Y-104723084D01*
X135555087Y-104690326D01*
X135727611Y-104567946D01*
X135873881Y-104415150D01*
X135988620Y-104237452D01*
X136067686Y-104041263D01*
X136108228Y-103833663D01*
X136108500Y-103828101D01*
X136108500Y-103122154D01*
X136093452Y-102964434D01*
X136033908Y-102761466D01*
X135986872Y-102670139D01*
X135939804Y-102578751D01*
X135939802Y-102578748D01*
X135937058Y-102573420D01*
X135806396Y-102407080D01*
X135801865Y-102403148D01*
X135801862Y-102403145D01*
X135651167Y-102272379D01*
X135646637Y-102268448D01*
X135641451Y-102265448D01*
X135641447Y-102265445D01*
X135468742Y-102165533D01*
X135463546Y-102162527D01*
X135263729Y-102093139D01*
X135257794Y-102092278D01*
X135257792Y-102092278D01*
X135060336Y-102063648D01*
X135060333Y-102063648D01*
X135054396Y-102062787D01*
X134843101Y-102072567D01*
X134711923Y-102104181D01*
X134643299Y-102120719D01*
X134643297Y-102120720D01*
X134637466Y-102122125D01*
X134632008Y-102124607D01*
X134632004Y-102124608D01*
X134516959Y-102176916D01*
X134444913Y-102209674D01*
X134272389Y-102332054D01*
X134268247Y-102336381D01*
X134268241Y-102336386D01*
X134181194Y-102427317D01*
X134119639Y-102462694D01*
X134048730Y-102459175D01*
X133990979Y-102417879D01*
X133983032Y-102406491D01*
X133948478Y-102350652D01*
X133823303Y-102225695D01*
X133720826Y-102162527D01*
X133678968Y-102136725D01*
X133678966Y-102136724D01*
X133672738Y-102132885D01*
X133512254Y-102079655D01*
X133511389Y-102079368D01*
X133511387Y-102079368D01*
X133504861Y-102077203D01*
X133498025Y-102076503D01*
X133498022Y-102076502D01*
X133454969Y-102072091D01*
X133400400Y-102066500D01*
X132599600Y-102066500D01*
X132596354Y-102066837D01*
X132596350Y-102066837D01*
X132500692Y-102076762D01*
X132500688Y-102076763D01*
X132493834Y-102077474D01*
X132487298Y-102079655D01*
X132487296Y-102079655D01*
X132364213Y-102120719D01*
X132326054Y-102133450D01*
X132175652Y-102226522D01*
X132050695Y-102351697D01*
X132046855Y-102357927D01*
X132046854Y-102357928D01*
X132009900Y-102417879D01*
X131957885Y-102502262D01*
X131902203Y-102670139D01*
X131891500Y-102774600D01*
X131891500Y-104125400D01*
X124508000Y-104125400D01*
X124508000Y-102049327D01*
X124509500Y-102029943D01*
X124511805Y-102015142D01*
X124511805Y-102015138D01*
X124513186Y-102006269D01*
X124512022Y-101997367D01*
X124512022Y-101997363D01*
X124512009Y-101997267D01*
X124511738Y-101966830D01*
X124518746Y-101904625D01*
X124525025Y-101877115D01*
X124552034Y-101799929D01*
X124564276Y-101774509D01*
X124607787Y-101705262D01*
X124625379Y-101683203D01*
X124683203Y-101625379D01*
X124705262Y-101607787D01*
X124774509Y-101564276D01*
X124799930Y-101552034D01*
X124877117Y-101525025D01*
X124904624Y-101518746D01*
X124928572Y-101516048D01*
X124960256Y-101512478D01*
X124975897Y-101511695D01*
X124984855Y-101511804D01*
X124993729Y-101513186D01*
X125025251Y-101509064D01*
X125041588Y-101508000D01*
X142950673Y-101508000D01*
X142970057Y-101509500D01*
G37*
%TD.AperFunction*%
%TD*%
M02*
