%FSLAX45Y45*%
G04 Gerber Fmt 4.5, Leading zero omitted, Abs format (unit mm)*
G04 Created by KiCad (PCBNEW 6.0.0-rc2-1.20211220git160328a.fc35) date 2022-01-05 17:26:33*
%MOMM*%
%LPD*%
G01*
G04 APERTURE LIST*
%TA.AperFunction,Profile*%
%ADD10C,0.100000*%
%TD*%
%ADD11C,0.200000*%
%ADD12C,0.040000*%
%ADD13C,0.075000*%
%ADD14C,0.110000*%
G04 APERTURE END LIST*
D10*
X14400000Y-12800000D02*
X14400000Y-10200000D01*
X12500000Y-12900000D02*
X14300000Y-12900000D01*
X12400000Y-10200000D02*
X12400000Y-12800000D01*
X14300000Y-10100000D02*
X12500000Y-10100000D01*
X12400000Y-12800000D02*
G75*
G03*
X12500000Y-12900000I100000J0D01*
G01*
X14300000Y-12900000D02*
G75*
G03*
X14400000Y-12800000I0J100000D01*
G01*
X14400000Y-10200000D02*
G75*
G03*
X14300000Y-10100000I-100000J0D01*
G01*
X12500000Y-10100000D02*
G75*
G03*
X12400000Y-10200000I0J-100000D01*
G01*
D11*
D12*
X12580000Y-11730000D02*
X12620000Y-11770000D01*
X12620000Y-11730000D02*
X12580000Y-11770000D01*
X14180000Y-11730000D02*
X14220000Y-11770000D01*
X14220000Y-11730000D02*
X14180000Y-11770000D01*
D13*
X13137500Y-12655000D02*
G75*
G03*
X13137500Y-12655000I-37500J0D01*
G01*
X13337500Y-10345000D02*
G75*
G03*
X13337500Y-10345000I-37500J0D01*
G01*
X13337500Y-12655000D02*
G75*
G03*
X13337500Y-12655000I-37500J0D01*
G01*
X13537500Y-10345000D02*
G75*
G03*
X13537500Y-10345000I-37500J0D01*
G01*
X13537500Y-12655000D02*
G75*
G03*
X13537500Y-12655000I-37500J0D01*
G01*
X13737500Y-12655000D02*
G75*
G03*
X13737500Y-12655000I-37500J0D01*
G01*
D14*
X13150000Y-10720000D02*
X13150000Y-10830000D01*
X13095000Y-10775000D02*
X13205000Y-10775000D01*
X13150000Y-12170000D02*
X13150000Y-12280000D01*
X13095000Y-12225000D02*
X13205000Y-12225000D01*
X13400000Y-12170000D02*
X13400000Y-12280000D01*
X13345000Y-12225000D02*
X13455000Y-12225000D01*
X13650000Y-10720000D02*
X13650000Y-10830000D01*
X13595000Y-10775000D02*
X13705000Y-10775000D01*
X13650000Y-12170000D02*
X13650000Y-12280000D01*
X13595000Y-12225000D02*
X13705000Y-12225000D01*
D11*
X12900711Y-11545711D02*
X12900711Y-11404289D01*
X12759289Y-11404289D01*
X12759289Y-11545711D01*
X12900711Y-11545711D01*
X12920000Y-11515000D02*
X12920000Y-11435000D01*
X12740000Y-11515000D02*
X12740000Y-11435000D01*
X12920000Y-11435000D02*
G75*
G03*
X12740000Y-11435000I-90000J0D01*
G01*
X12740000Y-11515000D02*
G75*
G03*
X12920000Y-11515000I90000J0D01*
G01*
X14040711Y-11545711D02*
X14040711Y-11404289D01*
X13899289Y-11404289D01*
X13899289Y-11545711D01*
X14040711Y-11545711D01*
X14060000Y-11515000D02*
X14060000Y-11435000D01*
X13880000Y-11515000D02*
X13880000Y-11435000D01*
X14060000Y-11435000D02*
G75*
G03*
X13880000Y-11435000I-90000J0D01*
G01*
X13880000Y-11515000D02*
G75*
G03*
X14060000Y-11515000I90000J0D01*
G01*
X12652619Y-13215476D02*
X12652619Y-13015476D01*
X12700238Y-13015476D01*
X12728809Y-13025000D01*
X12747857Y-13044048D01*
X12757381Y-13063095D01*
X12766905Y-13101190D01*
X12766905Y-13129762D01*
X12757381Y-13167857D01*
X12747857Y-13186905D01*
X12728809Y-13205952D01*
X12700238Y-13215476D01*
X12652619Y-13215476D01*
X12852619Y-13215476D02*
X12852619Y-13082143D01*
X12852619Y-13120238D02*
X12862143Y-13101190D01*
X12871667Y-13091667D01*
X12890714Y-13082143D01*
X12909762Y-13082143D01*
X12976428Y-13215476D02*
X12976428Y-13082143D01*
X12976428Y-13015476D02*
X12966905Y-13025000D01*
X12976428Y-13034524D01*
X12985952Y-13025000D01*
X12976428Y-13015476D01*
X12976428Y-13034524D01*
X13100238Y-13215476D02*
X13081190Y-13205952D01*
X13071667Y-13186905D01*
X13071667Y-13015476D01*
X13205000Y-13215476D02*
X13185952Y-13205952D01*
X13176428Y-13186905D01*
X13176428Y-13015476D01*
X13433571Y-13215476D02*
X13433571Y-13015476D01*
X13500238Y-13158333D01*
X13566905Y-13015476D01*
X13566905Y-13215476D01*
X13747857Y-13215476D02*
X13747857Y-13110714D01*
X13738333Y-13091667D01*
X13719286Y-13082143D01*
X13681190Y-13082143D01*
X13662143Y-13091667D01*
X13747857Y-13205952D02*
X13728809Y-13215476D01*
X13681190Y-13215476D01*
X13662143Y-13205952D01*
X13652619Y-13186905D01*
X13652619Y-13167857D01*
X13662143Y-13148809D01*
X13681190Y-13139286D01*
X13728809Y-13139286D01*
X13747857Y-13129762D01*
X13843095Y-13082143D02*
X13843095Y-13282143D01*
X13843095Y-13091667D02*
X13862143Y-13082143D01*
X13900238Y-13082143D01*
X13919286Y-13091667D01*
X13928809Y-13101190D01*
X13938333Y-13120238D01*
X13938333Y-13177381D01*
X13928809Y-13196428D01*
X13919286Y-13205952D01*
X13900238Y-13215476D01*
X13862143Y-13215476D01*
X13843095Y-13205952D01*
X14024048Y-13196428D02*
X14033571Y-13205952D01*
X14024048Y-13215476D01*
X14014524Y-13205952D01*
X14024048Y-13196428D01*
X14024048Y-13215476D01*
X14024048Y-13091667D02*
X14033571Y-13101190D01*
X14024048Y-13110714D01*
X14014524Y-13101190D01*
X14024048Y-13091667D01*
X14024048Y-13110714D01*
D12*
X12355000Y-13525000D02*
X12395000Y-13565000D01*
X12395000Y-13525000D02*
X12355000Y-13565000D01*
D11*
X12690714Y-13435476D02*
X12709762Y-13435476D01*
X12728809Y-13445000D01*
X12738333Y-13454524D01*
X12747857Y-13473571D01*
X12757381Y-13511667D01*
X12757381Y-13559286D01*
X12747857Y-13597381D01*
X12738333Y-13616428D01*
X12728809Y-13625952D01*
X12709762Y-13635476D01*
X12690714Y-13635476D01*
X12671667Y-13625952D01*
X12662143Y-13616428D01*
X12652619Y-13597381D01*
X12643095Y-13559286D01*
X12643095Y-13511667D01*
X12652619Y-13473571D01*
X12662143Y-13454524D01*
X12671667Y-13445000D01*
X12690714Y-13435476D01*
X12843095Y-13616428D02*
X12852619Y-13625952D01*
X12843095Y-13635476D01*
X12833571Y-13625952D01*
X12843095Y-13616428D01*
X12843095Y-13635476D01*
X13024048Y-13502143D02*
X13024048Y-13635476D01*
X12976428Y-13425952D02*
X12928809Y-13568809D01*
X13052619Y-13568809D01*
X13166905Y-13435476D02*
X13185952Y-13435476D01*
X13205000Y-13445000D01*
X13214524Y-13454524D01*
X13224048Y-13473571D01*
X13233571Y-13511667D01*
X13233571Y-13559286D01*
X13224048Y-13597381D01*
X13214524Y-13616428D01*
X13205000Y-13625952D01*
X13185952Y-13635476D01*
X13166905Y-13635476D01*
X13147857Y-13625952D01*
X13138333Y-13616428D01*
X13128809Y-13597381D01*
X13119286Y-13559286D01*
X13119286Y-13511667D01*
X13128809Y-13473571D01*
X13138333Y-13454524D01*
X13147857Y-13445000D01*
X13166905Y-13435476D01*
X13357381Y-13435476D02*
X13376428Y-13435476D01*
X13395476Y-13445000D01*
X13405000Y-13454524D01*
X13414524Y-13473571D01*
X13424048Y-13511667D01*
X13424048Y-13559286D01*
X13414524Y-13597381D01*
X13405000Y-13616428D01*
X13395476Y-13625952D01*
X13376428Y-13635476D01*
X13357381Y-13635476D01*
X13338333Y-13625952D01*
X13328809Y-13616428D01*
X13319286Y-13597381D01*
X13309762Y-13559286D01*
X13309762Y-13511667D01*
X13319286Y-13473571D01*
X13328809Y-13454524D01*
X13338333Y-13445000D01*
X13357381Y-13435476D01*
X13509762Y-13635476D02*
X13509762Y-13502143D01*
X13509762Y-13521190D02*
X13519286Y-13511667D01*
X13538333Y-13502143D01*
X13566905Y-13502143D01*
X13585952Y-13511667D01*
X13595476Y-13530714D01*
X13595476Y-13635476D01*
X13595476Y-13530714D02*
X13605000Y-13511667D01*
X13624048Y-13502143D01*
X13652619Y-13502143D01*
X13671667Y-13511667D01*
X13681190Y-13530714D01*
X13681190Y-13635476D01*
X13776428Y-13635476D02*
X13776428Y-13502143D01*
X13776428Y-13521190D02*
X13785952Y-13511667D01*
X13805000Y-13502143D01*
X13833571Y-13502143D01*
X13852619Y-13511667D01*
X13862143Y-13530714D01*
X13862143Y-13635476D01*
X13862143Y-13530714D02*
X13871667Y-13511667D01*
X13890714Y-13502143D01*
X13919286Y-13502143D01*
X13938333Y-13511667D01*
X13947857Y-13530714D01*
X13947857Y-13635476D01*
X14338333Y-13425952D02*
X14166905Y-13683095D01*
X14595476Y-13435476D02*
X14614524Y-13435476D01*
X14633571Y-13445000D01*
X14643095Y-13454524D01*
X14652619Y-13473571D01*
X14662143Y-13511667D01*
X14662143Y-13559286D01*
X14652619Y-13597381D01*
X14643095Y-13616428D01*
X14633571Y-13625952D01*
X14614524Y-13635476D01*
X14595476Y-13635476D01*
X14576428Y-13625952D01*
X14566905Y-13616428D01*
X14557381Y-13597381D01*
X14547857Y-13559286D01*
X14547857Y-13511667D01*
X14557381Y-13473571D01*
X14566905Y-13454524D01*
X14576428Y-13445000D01*
X14595476Y-13435476D01*
X14747857Y-13616428D02*
X14757381Y-13625952D01*
X14747857Y-13635476D01*
X14738333Y-13625952D01*
X14747857Y-13616428D01*
X14747857Y-13635476D01*
X14881190Y-13435476D02*
X14900238Y-13435476D01*
X14919286Y-13445000D01*
X14928809Y-13454524D01*
X14938333Y-13473571D01*
X14947857Y-13511667D01*
X14947857Y-13559286D01*
X14938333Y-13597381D01*
X14928809Y-13616428D01*
X14919286Y-13625952D01*
X14900238Y-13635476D01*
X14881190Y-13635476D01*
X14862143Y-13625952D01*
X14852619Y-13616428D01*
X14843095Y-13597381D01*
X14833571Y-13559286D01*
X14833571Y-13511667D01*
X14843095Y-13473571D01*
X14852619Y-13454524D01*
X14862143Y-13445000D01*
X14881190Y-13435476D01*
X15138333Y-13635476D02*
X15024048Y-13635476D01*
X15081190Y-13635476D02*
X15081190Y-13435476D01*
X15062143Y-13464048D01*
X15043095Y-13483095D01*
X15024048Y-13492619D01*
X15319286Y-13435476D02*
X15224048Y-13435476D01*
X15214524Y-13530714D01*
X15224048Y-13521190D01*
X15243095Y-13511667D01*
X15290714Y-13511667D01*
X15309762Y-13521190D01*
X15319286Y-13530714D01*
X15328809Y-13549762D01*
X15328809Y-13597381D01*
X15319286Y-13616428D01*
X15309762Y-13625952D01*
X15290714Y-13635476D01*
X15243095Y-13635476D01*
X15224048Y-13625952D01*
X15214524Y-13616428D01*
X15395476Y-13435476D02*
X15528809Y-13435476D01*
X15443095Y-13635476D01*
X15595476Y-13435476D02*
X15595476Y-13473571D01*
X15671667Y-13435476D02*
X15671667Y-13473571D01*
X15966905Y-13711667D02*
X15957381Y-13702143D01*
X15938333Y-13673571D01*
X15928809Y-13654524D01*
X15919286Y-13625952D01*
X15909762Y-13578333D01*
X15909762Y-13540238D01*
X15919286Y-13492619D01*
X15928809Y-13464048D01*
X15938333Y-13445000D01*
X15957381Y-13416428D01*
X15966905Y-13406905D01*
X16033571Y-13454524D02*
X16043095Y-13445000D01*
X16062143Y-13435476D01*
X16109762Y-13435476D01*
X16128809Y-13445000D01*
X16138333Y-13454524D01*
X16147857Y-13473571D01*
X16147857Y-13492619D01*
X16138333Y-13521190D01*
X16024048Y-13635476D01*
X16147857Y-13635476D01*
X16385952Y-13635476D02*
X16385952Y-13435476D01*
X16471667Y-13635476D02*
X16471667Y-13530714D01*
X16462143Y-13511667D01*
X16443095Y-13502143D01*
X16414524Y-13502143D01*
X16395476Y-13511667D01*
X16385952Y-13521190D01*
X16595476Y-13635476D02*
X16576428Y-13625952D01*
X16566905Y-13616428D01*
X16557381Y-13597381D01*
X16557381Y-13540238D01*
X16566905Y-13521190D01*
X16576428Y-13511667D01*
X16595476Y-13502143D01*
X16624048Y-13502143D01*
X16643095Y-13511667D01*
X16652619Y-13521190D01*
X16662143Y-13540238D01*
X16662143Y-13597381D01*
X16652619Y-13616428D01*
X16643095Y-13625952D01*
X16624048Y-13635476D01*
X16595476Y-13635476D01*
X16776428Y-13635476D02*
X16757381Y-13625952D01*
X16747857Y-13606905D01*
X16747857Y-13435476D01*
X16928810Y-13625952D02*
X16909762Y-13635476D01*
X16871667Y-13635476D01*
X16852619Y-13625952D01*
X16843095Y-13606905D01*
X16843095Y-13530714D01*
X16852619Y-13511667D01*
X16871667Y-13502143D01*
X16909762Y-13502143D01*
X16928810Y-13511667D01*
X16938333Y-13530714D01*
X16938333Y-13549762D01*
X16843095Y-13568809D01*
X17014524Y-13625952D02*
X17033571Y-13635476D01*
X17071667Y-13635476D01*
X17090714Y-13625952D01*
X17100238Y-13606905D01*
X17100238Y-13597381D01*
X17090714Y-13578333D01*
X17071667Y-13568809D01*
X17043095Y-13568809D01*
X17024048Y-13559286D01*
X17014524Y-13540238D01*
X17014524Y-13530714D01*
X17024048Y-13511667D01*
X17043095Y-13502143D01*
X17071667Y-13502143D01*
X17090714Y-13511667D01*
X17166905Y-13711667D02*
X17176429Y-13702143D01*
X17195476Y-13673571D01*
X17205000Y-13654524D01*
X17214524Y-13625952D01*
X17224048Y-13578333D01*
X17224048Y-13540238D01*
X17214524Y-13492619D01*
X17205000Y-13464048D01*
X17195476Y-13445000D01*
X17176429Y-13416428D01*
X17166905Y-13406905D01*
D13*
X12395000Y-13809000D02*
G75*
G03*
X12395000Y-13809000I-37500J0D01*
G01*
D11*
X12690714Y-13699476D02*
X12709762Y-13699476D01*
X12728809Y-13709000D01*
X12738333Y-13718524D01*
X12747857Y-13737571D01*
X12757381Y-13775667D01*
X12757381Y-13823286D01*
X12747857Y-13861381D01*
X12738333Y-13880428D01*
X12728809Y-13889952D01*
X12709762Y-13899476D01*
X12690714Y-13899476D01*
X12671667Y-13889952D01*
X12662143Y-13880428D01*
X12652619Y-13861381D01*
X12643095Y-13823286D01*
X12643095Y-13775667D01*
X12652619Y-13737571D01*
X12662143Y-13718524D01*
X12671667Y-13709000D01*
X12690714Y-13699476D01*
X12843095Y-13880428D02*
X12852619Y-13889952D01*
X12843095Y-13899476D01*
X12833571Y-13889952D01*
X12843095Y-13880428D01*
X12843095Y-13899476D01*
X12919286Y-13699476D02*
X13052619Y-13699476D01*
X12966905Y-13899476D01*
X13224048Y-13699476D02*
X13128809Y-13699476D01*
X13119286Y-13794714D01*
X13128809Y-13785190D01*
X13147857Y-13775667D01*
X13195476Y-13775667D01*
X13214524Y-13785190D01*
X13224048Y-13794714D01*
X13233571Y-13813762D01*
X13233571Y-13861381D01*
X13224048Y-13880428D01*
X13214524Y-13889952D01*
X13195476Y-13899476D01*
X13147857Y-13899476D01*
X13128809Y-13889952D01*
X13119286Y-13880428D01*
X13357381Y-13699476D02*
X13376428Y-13699476D01*
X13395476Y-13709000D01*
X13405000Y-13718524D01*
X13414524Y-13737571D01*
X13424048Y-13775667D01*
X13424048Y-13823286D01*
X13414524Y-13861381D01*
X13405000Y-13880428D01*
X13395476Y-13889952D01*
X13376428Y-13899476D01*
X13357381Y-13899476D01*
X13338333Y-13889952D01*
X13328809Y-13880428D01*
X13319286Y-13861381D01*
X13309762Y-13823286D01*
X13309762Y-13775667D01*
X13319286Y-13737571D01*
X13328809Y-13718524D01*
X13338333Y-13709000D01*
X13357381Y-13699476D01*
X13509762Y-13899476D02*
X13509762Y-13766143D01*
X13509762Y-13785190D02*
X13519286Y-13775667D01*
X13538333Y-13766143D01*
X13566905Y-13766143D01*
X13585952Y-13775667D01*
X13595476Y-13794714D01*
X13595476Y-13899476D01*
X13595476Y-13794714D02*
X13605000Y-13775667D01*
X13624048Y-13766143D01*
X13652619Y-13766143D01*
X13671667Y-13775667D01*
X13681190Y-13794714D01*
X13681190Y-13899476D01*
X13776428Y-13899476D02*
X13776428Y-13766143D01*
X13776428Y-13785190D02*
X13785952Y-13775667D01*
X13805000Y-13766143D01*
X13833571Y-13766143D01*
X13852619Y-13775667D01*
X13862143Y-13794714D01*
X13862143Y-13899476D01*
X13862143Y-13794714D02*
X13871667Y-13775667D01*
X13890714Y-13766143D01*
X13919286Y-13766143D01*
X13938333Y-13775667D01*
X13947857Y-13794714D01*
X13947857Y-13899476D01*
X14338333Y-13689952D02*
X14166905Y-13947095D01*
X14595476Y-13699476D02*
X14614524Y-13699476D01*
X14633571Y-13709000D01*
X14643095Y-13718524D01*
X14652619Y-13737571D01*
X14662143Y-13775667D01*
X14662143Y-13823286D01*
X14652619Y-13861381D01*
X14643095Y-13880428D01*
X14633571Y-13889952D01*
X14614524Y-13899476D01*
X14595476Y-13899476D01*
X14576428Y-13889952D01*
X14566905Y-13880428D01*
X14557381Y-13861381D01*
X14547857Y-13823286D01*
X14547857Y-13775667D01*
X14557381Y-13737571D01*
X14566905Y-13718524D01*
X14576428Y-13709000D01*
X14595476Y-13699476D01*
X14747857Y-13880428D02*
X14757381Y-13889952D01*
X14747857Y-13899476D01*
X14738333Y-13889952D01*
X14747857Y-13880428D01*
X14747857Y-13899476D01*
X14881190Y-13699476D02*
X14900238Y-13699476D01*
X14919286Y-13709000D01*
X14928809Y-13718524D01*
X14938333Y-13737571D01*
X14947857Y-13775667D01*
X14947857Y-13823286D01*
X14938333Y-13861381D01*
X14928809Y-13880428D01*
X14919286Y-13889952D01*
X14900238Y-13899476D01*
X14881190Y-13899476D01*
X14862143Y-13889952D01*
X14852619Y-13880428D01*
X14843095Y-13861381D01*
X14833571Y-13823286D01*
X14833571Y-13775667D01*
X14843095Y-13737571D01*
X14852619Y-13718524D01*
X14862143Y-13709000D01*
X14881190Y-13699476D01*
X15024048Y-13718524D02*
X15033571Y-13709000D01*
X15052619Y-13699476D01*
X15100238Y-13699476D01*
X15119286Y-13709000D01*
X15128809Y-13718524D01*
X15138333Y-13737571D01*
X15138333Y-13756619D01*
X15128809Y-13785190D01*
X15014524Y-13899476D01*
X15138333Y-13899476D01*
X15233571Y-13899476D02*
X15271667Y-13899476D01*
X15290714Y-13889952D01*
X15300238Y-13880428D01*
X15319286Y-13851857D01*
X15328809Y-13813762D01*
X15328809Y-13737571D01*
X15319286Y-13718524D01*
X15309762Y-13709000D01*
X15290714Y-13699476D01*
X15252619Y-13699476D01*
X15233571Y-13709000D01*
X15224048Y-13718524D01*
X15214524Y-13737571D01*
X15214524Y-13785190D01*
X15224048Y-13804238D01*
X15233571Y-13813762D01*
X15252619Y-13823286D01*
X15290714Y-13823286D01*
X15309762Y-13813762D01*
X15319286Y-13804238D01*
X15328809Y-13785190D01*
X15509762Y-13699476D02*
X15414524Y-13699476D01*
X15405000Y-13794714D01*
X15414524Y-13785190D01*
X15433571Y-13775667D01*
X15481190Y-13775667D01*
X15500238Y-13785190D01*
X15509762Y-13794714D01*
X15519286Y-13813762D01*
X15519286Y-13861381D01*
X15509762Y-13880428D01*
X15500238Y-13889952D01*
X15481190Y-13899476D01*
X15433571Y-13899476D01*
X15414524Y-13889952D01*
X15405000Y-13880428D01*
X15595476Y-13699476D02*
X15595476Y-13737571D01*
X15671667Y-13699476D02*
X15671667Y-13737571D01*
X15966905Y-13975667D02*
X15957381Y-13966143D01*
X15938333Y-13937571D01*
X15928809Y-13918524D01*
X15919286Y-13889952D01*
X15909762Y-13842333D01*
X15909762Y-13804238D01*
X15919286Y-13756619D01*
X15928809Y-13728048D01*
X15938333Y-13709000D01*
X15957381Y-13680428D01*
X15966905Y-13670905D01*
X16128809Y-13699476D02*
X16090714Y-13699476D01*
X16071667Y-13709000D01*
X16062143Y-13718524D01*
X16043095Y-13747095D01*
X16033571Y-13785190D01*
X16033571Y-13861381D01*
X16043095Y-13880428D01*
X16052619Y-13889952D01*
X16071667Y-13899476D01*
X16109762Y-13899476D01*
X16128809Y-13889952D01*
X16138333Y-13880428D01*
X16147857Y-13861381D01*
X16147857Y-13813762D01*
X16138333Y-13794714D01*
X16128809Y-13785190D01*
X16109762Y-13775667D01*
X16071667Y-13775667D01*
X16052619Y-13785190D01*
X16043095Y-13794714D01*
X16033571Y-13813762D01*
X16385952Y-13899476D02*
X16385952Y-13699476D01*
X16471667Y-13899476D02*
X16471667Y-13794714D01*
X16462143Y-13775667D01*
X16443095Y-13766143D01*
X16414524Y-13766143D01*
X16395476Y-13775667D01*
X16385952Y-13785190D01*
X16595476Y-13899476D02*
X16576428Y-13889952D01*
X16566905Y-13880428D01*
X16557381Y-13861381D01*
X16557381Y-13804238D01*
X16566905Y-13785190D01*
X16576428Y-13775667D01*
X16595476Y-13766143D01*
X16624048Y-13766143D01*
X16643095Y-13775667D01*
X16652619Y-13785190D01*
X16662143Y-13804238D01*
X16662143Y-13861381D01*
X16652619Y-13880428D01*
X16643095Y-13889952D01*
X16624048Y-13899476D01*
X16595476Y-13899476D01*
X16776428Y-13899476D02*
X16757381Y-13889952D01*
X16747857Y-13870905D01*
X16747857Y-13699476D01*
X16928810Y-13889952D02*
X16909762Y-13899476D01*
X16871667Y-13899476D01*
X16852619Y-13889952D01*
X16843095Y-13870905D01*
X16843095Y-13794714D01*
X16852619Y-13775667D01*
X16871667Y-13766143D01*
X16909762Y-13766143D01*
X16928810Y-13775667D01*
X16938333Y-13794714D01*
X16938333Y-13813762D01*
X16843095Y-13832809D01*
X17014524Y-13889952D02*
X17033571Y-13899476D01*
X17071667Y-13899476D01*
X17090714Y-13889952D01*
X17100238Y-13870905D01*
X17100238Y-13861381D01*
X17090714Y-13842333D01*
X17071667Y-13832809D01*
X17043095Y-13832809D01*
X17024048Y-13823286D01*
X17014524Y-13804238D01*
X17014524Y-13794714D01*
X17024048Y-13775667D01*
X17043095Y-13766143D01*
X17071667Y-13766143D01*
X17090714Y-13775667D01*
X17166905Y-13975667D02*
X17176429Y-13966143D01*
X17195476Y-13937571D01*
X17205000Y-13918524D01*
X17214524Y-13889952D01*
X17224048Y-13842333D01*
X17224048Y-13804238D01*
X17214524Y-13756619D01*
X17205000Y-13728048D01*
X17195476Y-13709000D01*
X17176429Y-13680428D01*
X17166905Y-13670905D01*
D14*
X12340000Y-14018000D02*
X12340000Y-14128000D01*
X12285000Y-14073000D02*
X12395000Y-14073000D01*
D11*
X12757381Y-14163476D02*
X12643095Y-14163476D01*
X12700238Y-14163476D02*
X12700238Y-13963476D01*
X12681190Y-13992048D01*
X12662143Y-14011095D01*
X12643095Y-14020619D01*
X12843095Y-14144428D02*
X12852619Y-14153952D01*
X12843095Y-14163476D01*
X12833571Y-14153952D01*
X12843095Y-14144428D01*
X12843095Y-14163476D01*
X13043095Y-14163476D02*
X12928809Y-14163476D01*
X12985952Y-14163476D02*
X12985952Y-13963476D01*
X12966905Y-13992048D01*
X12947857Y-14011095D01*
X12928809Y-14020619D01*
X13166905Y-13963476D02*
X13185952Y-13963476D01*
X13205000Y-13973000D01*
X13214524Y-13982524D01*
X13224048Y-14001571D01*
X13233571Y-14039667D01*
X13233571Y-14087286D01*
X13224048Y-14125381D01*
X13214524Y-14144428D01*
X13205000Y-14153952D01*
X13185952Y-14163476D01*
X13166905Y-14163476D01*
X13147857Y-14153952D01*
X13138333Y-14144428D01*
X13128809Y-14125381D01*
X13119286Y-14087286D01*
X13119286Y-14039667D01*
X13128809Y-14001571D01*
X13138333Y-13982524D01*
X13147857Y-13973000D01*
X13166905Y-13963476D01*
X13357381Y-13963476D02*
X13376428Y-13963476D01*
X13395476Y-13973000D01*
X13405000Y-13982524D01*
X13414524Y-14001571D01*
X13424048Y-14039667D01*
X13424048Y-14087286D01*
X13414524Y-14125381D01*
X13405000Y-14144428D01*
X13395476Y-14153952D01*
X13376428Y-14163476D01*
X13357381Y-14163476D01*
X13338333Y-14153952D01*
X13328809Y-14144428D01*
X13319286Y-14125381D01*
X13309762Y-14087286D01*
X13309762Y-14039667D01*
X13319286Y-14001571D01*
X13328809Y-13982524D01*
X13338333Y-13973000D01*
X13357381Y-13963476D01*
X13509762Y-14163476D02*
X13509762Y-14030143D01*
X13509762Y-14049190D02*
X13519286Y-14039667D01*
X13538333Y-14030143D01*
X13566905Y-14030143D01*
X13585952Y-14039667D01*
X13595476Y-14058714D01*
X13595476Y-14163476D01*
X13595476Y-14058714D02*
X13605000Y-14039667D01*
X13624048Y-14030143D01*
X13652619Y-14030143D01*
X13671667Y-14039667D01*
X13681190Y-14058714D01*
X13681190Y-14163476D01*
X13776428Y-14163476D02*
X13776428Y-14030143D01*
X13776428Y-14049190D02*
X13785952Y-14039667D01*
X13805000Y-14030143D01*
X13833571Y-14030143D01*
X13852619Y-14039667D01*
X13862143Y-14058714D01*
X13862143Y-14163476D01*
X13862143Y-14058714D02*
X13871667Y-14039667D01*
X13890714Y-14030143D01*
X13919286Y-14030143D01*
X13938333Y-14039667D01*
X13947857Y-14058714D01*
X13947857Y-14163476D01*
X14338333Y-13953952D02*
X14166905Y-14211095D01*
X14595476Y-13963476D02*
X14614524Y-13963476D01*
X14633571Y-13973000D01*
X14643095Y-13982524D01*
X14652619Y-14001571D01*
X14662143Y-14039667D01*
X14662143Y-14087286D01*
X14652619Y-14125381D01*
X14643095Y-14144428D01*
X14633571Y-14153952D01*
X14614524Y-14163476D01*
X14595476Y-14163476D01*
X14576428Y-14153952D01*
X14566905Y-14144428D01*
X14557381Y-14125381D01*
X14547857Y-14087286D01*
X14547857Y-14039667D01*
X14557381Y-14001571D01*
X14566905Y-13982524D01*
X14576428Y-13973000D01*
X14595476Y-13963476D01*
X14747857Y-14144428D02*
X14757381Y-14153952D01*
X14747857Y-14163476D01*
X14738333Y-14153952D01*
X14747857Y-14144428D01*
X14747857Y-14163476D01*
X14881190Y-13963476D02*
X14900238Y-13963476D01*
X14919286Y-13973000D01*
X14928809Y-13982524D01*
X14938333Y-14001571D01*
X14947857Y-14039667D01*
X14947857Y-14087286D01*
X14938333Y-14125381D01*
X14928809Y-14144428D01*
X14919286Y-14153952D01*
X14900238Y-14163476D01*
X14881190Y-14163476D01*
X14862143Y-14153952D01*
X14852619Y-14144428D01*
X14843095Y-14125381D01*
X14833571Y-14087286D01*
X14833571Y-14039667D01*
X14843095Y-14001571D01*
X14852619Y-13982524D01*
X14862143Y-13973000D01*
X14881190Y-13963476D01*
X15119286Y-14030143D02*
X15119286Y-14163476D01*
X15071667Y-13953952D02*
X15024048Y-14096809D01*
X15147857Y-14096809D01*
X15205000Y-13963476D02*
X15328809Y-13963476D01*
X15262143Y-14039667D01*
X15290714Y-14039667D01*
X15309762Y-14049190D01*
X15319286Y-14058714D01*
X15328809Y-14077762D01*
X15328809Y-14125381D01*
X15319286Y-14144428D01*
X15309762Y-14153952D01*
X15290714Y-14163476D01*
X15233571Y-14163476D01*
X15214524Y-14153952D01*
X15205000Y-14144428D01*
X15395476Y-13963476D02*
X15519286Y-13963476D01*
X15452619Y-14039667D01*
X15481190Y-14039667D01*
X15500238Y-14049190D01*
X15509762Y-14058714D01*
X15519286Y-14077762D01*
X15519286Y-14125381D01*
X15509762Y-14144428D01*
X15500238Y-14153952D01*
X15481190Y-14163476D01*
X15424048Y-14163476D01*
X15405000Y-14153952D01*
X15395476Y-14144428D01*
X15595476Y-13963476D02*
X15595476Y-14001571D01*
X15671667Y-13963476D02*
X15671667Y-14001571D01*
X15966905Y-14239667D02*
X15957381Y-14230143D01*
X15938333Y-14201571D01*
X15928809Y-14182524D01*
X15919286Y-14153952D01*
X15909762Y-14106333D01*
X15909762Y-14068238D01*
X15919286Y-14020619D01*
X15928809Y-13992048D01*
X15938333Y-13973000D01*
X15957381Y-13944428D01*
X15966905Y-13934905D01*
X16138333Y-13963476D02*
X16043095Y-13963476D01*
X16033571Y-14058714D01*
X16043095Y-14049190D01*
X16062143Y-14039667D01*
X16109762Y-14039667D01*
X16128809Y-14049190D01*
X16138333Y-14058714D01*
X16147857Y-14077762D01*
X16147857Y-14125381D01*
X16138333Y-14144428D01*
X16128809Y-14153952D01*
X16109762Y-14163476D01*
X16062143Y-14163476D01*
X16043095Y-14153952D01*
X16033571Y-14144428D01*
X16385952Y-14163476D02*
X16385952Y-13963476D01*
X16471667Y-14163476D02*
X16471667Y-14058714D01*
X16462143Y-14039667D01*
X16443095Y-14030143D01*
X16414524Y-14030143D01*
X16395476Y-14039667D01*
X16385952Y-14049190D01*
X16595476Y-14163476D02*
X16576428Y-14153952D01*
X16566905Y-14144428D01*
X16557381Y-14125381D01*
X16557381Y-14068238D01*
X16566905Y-14049190D01*
X16576428Y-14039667D01*
X16595476Y-14030143D01*
X16624048Y-14030143D01*
X16643095Y-14039667D01*
X16652619Y-14049190D01*
X16662143Y-14068238D01*
X16662143Y-14125381D01*
X16652619Y-14144428D01*
X16643095Y-14153952D01*
X16624048Y-14163476D01*
X16595476Y-14163476D01*
X16776428Y-14163476D02*
X16757381Y-14153952D01*
X16747857Y-14134905D01*
X16747857Y-13963476D01*
X16928810Y-14153952D02*
X16909762Y-14163476D01*
X16871667Y-14163476D01*
X16852619Y-14153952D01*
X16843095Y-14134905D01*
X16843095Y-14058714D01*
X16852619Y-14039667D01*
X16871667Y-14030143D01*
X16909762Y-14030143D01*
X16928810Y-14039667D01*
X16938333Y-14058714D01*
X16938333Y-14077762D01*
X16843095Y-14096809D01*
X17014524Y-14153952D02*
X17033571Y-14163476D01*
X17071667Y-14163476D01*
X17090714Y-14153952D01*
X17100238Y-14134905D01*
X17100238Y-14125381D01*
X17090714Y-14106333D01*
X17071667Y-14096809D01*
X17043095Y-14096809D01*
X17024048Y-14087286D01*
X17014524Y-14068238D01*
X17014524Y-14058714D01*
X17024048Y-14039667D01*
X17043095Y-14030143D01*
X17071667Y-14030143D01*
X17090714Y-14039667D01*
X17166905Y-14239667D02*
X17176429Y-14230143D01*
X17195476Y-14201571D01*
X17205000Y-14182524D01*
X17214524Y-14153952D01*
X17224048Y-14106333D01*
X17224048Y-14068238D01*
X17214524Y-14020619D01*
X17205000Y-13992048D01*
X17195476Y-13973000D01*
X17176429Y-13944428D01*
X17166905Y-13934905D01*
X12365711Y-14407711D02*
X12365711Y-14266289D01*
X12224289Y-14266289D01*
X12224289Y-14407711D01*
X12365711Y-14407711D01*
X12643095Y-14246524D02*
X12652619Y-14237000D01*
X12671667Y-14227476D01*
X12719286Y-14227476D01*
X12738333Y-14237000D01*
X12747857Y-14246524D01*
X12757381Y-14265571D01*
X12757381Y-14284619D01*
X12747857Y-14313190D01*
X12633571Y-14427476D01*
X12757381Y-14427476D01*
X12843095Y-14408428D02*
X12852619Y-14417952D01*
X12843095Y-14427476D01*
X12833571Y-14417952D01*
X12843095Y-14408428D01*
X12843095Y-14427476D01*
X12976428Y-14227476D02*
X12995476Y-14227476D01*
X13014524Y-14237000D01*
X13024048Y-14246524D01*
X13033571Y-14265571D01*
X13043095Y-14303667D01*
X13043095Y-14351286D01*
X13033571Y-14389381D01*
X13024048Y-14408428D01*
X13014524Y-14417952D01*
X12995476Y-14427476D01*
X12976428Y-14427476D01*
X12957381Y-14417952D01*
X12947857Y-14408428D01*
X12938333Y-14389381D01*
X12928809Y-14351286D01*
X12928809Y-14303667D01*
X12938333Y-14265571D01*
X12947857Y-14246524D01*
X12957381Y-14237000D01*
X12976428Y-14227476D01*
X13166905Y-14227476D02*
X13185952Y-14227476D01*
X13205000Y-14237000D01*
X13214524Y-14246524D01*
X13224048Y-14265571D01*
X13233571Y-14303667D01*
X13233571Y-14351286D01*
X13224048Y-14389381D01*
X13214524Y-14408428D01*
X13205000Y-14417952D01*
X13185952Y-14427476D01*
X13166905Y-14427476D01*
X13147857Y-14417952D01*
X13138333Y-14408428D01*
X13128809Y-14389381D01*
X13119286Y-14351286D01*
X13119286Y-14303667D01*
X13128809Y-14265571D01*
X13138333Y-14246524D01*
X13147857Y-14237000D01*
X13166905Y-14227476D01*
X13357381Y-14227476D02*
X13376428Y-14227476D01*
X13395476Y-14237000D01*
X13405000Y-14246524D01*
X13414524Y-14265571D01*
X13424048Y-14303667D01*
X13424048Y-14351286D01*
X13414524Y-14389381D01*
X13405000Y-14408428D01*
X13395476Y-14417952D01*
X13376428Y-14427476D01*
X13357381Y-14427476D01*
X13338333Y-14417952D01*
X13328809Y-14408428D01*
X13319286Y-14389381D01*
X13309762Y-14351286D01*
X13309762Y-14303667D01*
X13319286Y-14265571D01*
X13328809Y-14246524D01*
X13338333Y-14237000D01*
X13357381Y-14227476D01*
X13509762Y-14427476D02*
X13509762Y-14294143D01*
X13509762Y-14313190D02*
X13519286Y-14303667D01*
X13538333Y-14294143D01*
X13566905Y-14294143D01*
X13585952Y-14303667D01*
X13595476Y-14322714D01*
X13595476Y-14427476D01*
X13595476Y-14322714D02*
X13605000Y-14303667D01*
X13624048Y-14294143D01*
X13652619Y-14294143D01*
X13671667Y-14303667D01*
X13681190Y-14322714D01*
X13681190Y-14427476D01*
X13776428Y-14427476D02*
X13776428Y-14294143D01*
X13776428Y-14313190D02*
X13785952Y-14303667D01*
X13805000Y-14294143D01*
X13833571Y-14294143D01*
X13852619Y-14303667D01*
X13862143Y-14322714D01*
X13862143Y-14427476D01*
X13862143Y-14322714D02*
X13871667Y-14303667D01*
X13890714Y-14294143D01*
X13919286Y-14294143D01*
X13938333Y-14303667D01*
X13947857Y-14322714D01*
X13947857Y-14427476D01*
X14338333Y-14217952D02*
X14166905Y-14475095D01*
X14595476Y-14227476D02*
X14614524Y-14227476D01*
X14633571Y-14237000D01*
X14643095Y-14246524D01*
X14652619Y-14265571D01*
X14662143Y-14303667D01*
X14662143Y-14351286D01*
X14652619Y-14389381D01*
X14643095Y-14408428D01*
X14633571Y-14417952D01*
X14614524Y-14427476D01*
X14595476Y-14427476D01*
X14576428Y-14417952D01*
X14566905Y-14408428D01*
X14557381Y-14389381D01*
X14547857Y-14351286D01*
X14547857Y-14303667D01*
X14557381Y-14265571D01*
X14566905Y-14246524D01*
X14576428Y-14237000D01*
X14595476Y-14227476D01*
X14747857Y-14408428D02*
X14757381Y-14417952D01*
X14747857Y-14427476D01*
X14738333Y-14417952D01*
X14747857Y-14408428D01*
X14747857Y-14427476D01*
X14881190Y-14227476D02*
X14900238Y-14227476D01*
X14919286Y-14237000D01*
X14928809Y-14246524D01*
X14938333Y-14265571D01*
X14947857Y-14303667D01*
X14947857Y-14351286D01*
X14938333Y-14389381D01*
X14928809Y-14408428D01*
X14919286Y-14417952D01*
X14900238Y-14427476D01*
X14881190Y-14427476D01*
X14862143Y-14417952D01*
X14852619Y-14408428D01*
X14843095Y-14389381D01*
X14833571Y-14351286D01*
X14833571Y-14303667D01*
X14843095Y-14265571D01*
X14852619Y-14246524D01*
X14862143Y-14237000D01*
X14881190Y-14227476D01*
X15014524Y-14227476D02*
X15147857Y-14227476D01*
X15062143Y-14427476D01*
X15252619Y-14313190D02*
X15233571Y-14303667D01*
X15224048Y-14294143D01*
X15214524Y-14275095D01*
X15214524Y-14265571D01*
X15224048Y-14246524D01*
X15233571Y-14237000D01*
X15252619Y-14227476D01*
X15290714Y-14227476D01*
X15309762Y-14237000D01*
X15319286Y-14246524D01*
X15328809Y-14265571D01*
X15328809Y-14275095D01*
X15319286Y-14294143D01*
X15309762Y-14303667D01*
X15290714Y-14313190D01*
X15252619Y-14313190D01*
X15233571Y-14322714D01*
X15224048Y-14332238D01*
X15214524Y-14351286D01*
X15214524Y-14389381D01*
X15224048Y-14408428D01*
X15233571Y-14417952D01*
X15252619Y-14427476D01*
X15290714Y-14427476D01*
X15309762Y-14417952D01*
X15319286Y-14408428D01*
X15328809Y-14389381D01*
X15328809Y-14351286D01*
X15319286Y-14332238D01*
X15309762Y-14322714D01*
X15290714Y-14313190D01*
X15395476Y-14227476D02*
X15528809Y-14227476D01*
X15443095Y-14427476D01*
X15595476Y-14227476D02*
X15595476Y-14265571D01*
X15671667Y-14227476D02*
X15671667Y-14265571D01*
X15966905Y-14503667D02*
X15957381Y-14494143D01*
X15938333Y-14465571D01*
X15928809Y-14446524D01*
X15919286Y-14417952D01*
X15909762Y-14370333D01*
X15909762Y-14332238D01*
X15919286Y-14284619D01*
X15928809Y-14256048D01*
X15938333Y-14237000D01*
X15957381Y-14208428D01*
X15966905Y-14198905D01*
X16081190Y-14227476D02*
X16100238Y-14227476D01*
X16119286Y-14237000D01*
X16128809Y-14246524D01*
X16138333Y-14265571D01*
X16147857Y-14303667D01*
X16147857Y-14351286D01*
X16138333Y-14389381D01*
X16128809Y-14408428D01*
X16119286Y-14417952D01*
X16100238Y-14427476D01*
X16081190Y-14427476D01*
X16062143Y-14417952D01*
X16052619Y-14408428D01*
X16043095Y-14389381D01*
X16033571Y-14351286D01*
X16033571Y-14303667D01*
X16043095Y-14265571D01*
X16052619Y-14246524D01*
X16062143Y-14237000D01*
X16081190Y-14227476D01*
X16385952Y-14427476D02*
X16385952Y-14227476D01*
X16471667Y-14427476D02*
X16471667Y-14322714D01*
X16462143Y-14303667D01*
X16443095Y-14294143D01*
X16414524Y-14294143D01*
X16395476Y-14303667D01*
X16385952Y-14313190D01*
X16595476Y-14427476D02*
X16576428Y-14417952D01*
X16566905Y-14408428D01*
X16557381Y-14389381D01*
X16557381Y-14332238D01*
X16566905Y-14313190D01*
X16576428Y-14303667D01*
X16595476Y-14294143D01*
X16624048Y-14294143D01*
X16643095Y-14303667D01*
X16652619Y-14313190D01*
X16662143Y-14332238D01*
X16662143Y-14389381D01*
X16652619Y-14408428D01*
X16643095Y-14417952D01*
X16624048Y-14427476D01*
X16595476Y-14427476D01*
X16776428Y-14427476D02*
X16757381Y-14417952D01*
X16747857Y-14398905D01*
X16747857Y-14227476D01*
X16928810Y-14417952D02*
X16909762Y-14427476D01*
X16871667Y-14427476D01*
X16852619Y-14417952D01*
X16843095Y-14398905D01*
X16843095Y-14322714D01*
X16852619Y-14303667D01*
X16871667Y-14294143D01*
X16909762Y-14294143D01*
X16928810Y-14303667D01*
X16938333Y-14322714D01*
X16938333Y-14341762D01*
X16843095Y-14360809D01*
X17014524Y-14417952D02*
X17033571Y-14427476D01*
X17071667Y-14427476D01*
X17090714Y-14417952D01*
X17100238Y-14398905D01*
X17100238Y-14389381D01*
X17090714Y-14370333D01*
X17071667Y-14360809D01*
X17043095Y-14360809D01*
X17024048Y-14351286D01*
X17014524Y-14332238D01*
X17014524Y-14322714D01*
X17024048Y-14303667D01*
X17043095Y-14294143D01*
X17071667Y-14294143D01*
X17090714Y-14303667D01*
X17338333Y-14351286D02*
X17490714Y-14351286D01*
X17414524Y-14427476D02*
X17414524Y-14275095D01*
X17728810Y-14246524D02*
X17738333Y-14237000D01*
X17757381Y-14227476D01*
X17805000Y-14227476D01*
X17824048Y-14237000D01*
X17833571Y-14246524D01*
X17843095Y-14265571D01*
X17843095Y-14284619D01*
X17833571Y-14313190D01*
X17719286Y-14427476D01*
X17843095Y-14427476D01*
X18071667Y-14417952D02*
X18090714Y-14427476D01*
X18128810Y-14427476D01*
X18147857Y-14417952D01*
X18157381Y-14398905D01*
X18157381Y-14389381D01*
X18147857Y-14370333D01*
X18128810Y-14360809D01*
X18100238Y-14360809D01*
X18081190Y-14351286D01*
X18071667Y-14332238D01*
X18071667Y-14322714D01*
X18081190Y-14303667D01*
X18100238Y-14294143D01*
X18128810Y-14294143D01*
X18147857Y-14303667D01*
X18271667Y-14427476D02*
X18252619Y-14417952D01*
X18243095Y-14398905D01*
X18243095Y-14227476D01*
X18376429Y-14427476D02*
X18357381Y-14417952D01*
X18347857Y-14408428D01*
X18338333Y-14389381D01*
X18338333Y-14332238D01*
X18347857Y-14313190D01*
X18357381Y-14303667D01*
X18376429Y-14294143D01*
X18405000Y-14294143D01*
X18424048Y-14303667D01*
X18433571Y-14313190D01*
X18443095Y-14332238D01*
X18443095Y-14389381D01*
X18433571Y-14408428D01*
X18424048Y-14417952D01*
X18405000Y-14427476D01*
X18376429Y-14427476D01*
X18500238Y-14294143D02*
X18576429Y-14294143D01*
X18528810Y-14227476D02*
X18528810Y-14398905D01*
X18538333Y-14417952D01*
X18557381Y-14427476D01*
X18576429Y-14427476D01*
X18633571Y-14417952D02*
X18652619Y-14427476D01*
X18690714Y-14427476D01*
X18709762Y-14417952D01*
X18719286Y-14398905D01*
X18719286Y-14389381D01*
X18709762Y-14370333D01*
X18690714Y-14360809D01*
X18662143Y-14360809D01*
X18643095Y-14351286D01*
X18633571Y-14332238D01*
X18633571Y-14322714D01*
X18643095Y-14303667D01*
X18662143Y-14294143D01*
X18690714Y-14294143D01*
X18709762Y-14303667D01*
X18785952Y-14503667D02*
X18795476Y-14494143D01*
X18814524Y-14465571D01*
X18824048Y-14446524D01*
X18833571Y-14417952D01*
X18843095Y-14370333D01*
X18843095Y-14332238D01*
X18833571Y-14284619D01*
X18824048Y-14256048D01*
X18814524Y-14237000D01*
X18795476Y-14208428D01*
X18785952Y-14198905D01*
M02*
