%TF.GenerationSoftware,KiCad,Pcbnew,6.0.0-rc2-1.20211220git160328a.fc35*%
%TF.CreationDate,2022-01-05T17:26:22+00:00*%
%TF.ProjectId,RotaryEncoder,526f7461-7279-4456-9e63-6f6465722e6b,rev?*%
%TF.SameCoordinates,Original*%
%TF.FileFunction,Legend,Top*%
%TF.FilePolarity,Positive*%
%FSLAX46Y46*%
G04 Gerber Fmt 4.6, Leading zero omitted, Abs format (unit mm)*
G04 Created by KiCad (PCBNEW 6.0.0-rc2-1.20211220git160328a.fc35) date 2022-01-05 17:26:22*
%MOMM*%
%LPD*%
G01*
G04 APERTURE LIST*
%ADD10C,0.125000*%
%ADD11C,0.150000*%
%ADD12C,0.002540*%
%ADD13C,0.120000*%
G04 APERTURE END LIST*
D10*
X132369047Y-117678571D02*
X132345238Y-117702380D01*
X132273809Y-117726190D01*
X132226190Y-117726190D01*
X132154761Y-117702380D01*
X132107142Y-117654761D01*
X132083333Y-117607142D01*
X132059523Y-117511904D01*
X132059523Y-117440476D01*
X132083333Y-117345238D01*
X132107142Y-117297619D01*
X132154761Y-117250000D01*
X132226190Y-117226190D01*
X132273809Y-117226190D01*
X132345238Y-117250000D01*
X132369047Y-117273809D01*
X132869047Y-117678571D02*
X132845238Y-117702380D01*
X132773809Y-117726190D01*
X132726190Y-117726190D01*
X132654761Y-117702380D01*
X132607142Y-117654761D01*
X132583333Y-117607142D01*
X132559523Y-117511904D01*
X132559523Y-117440476D01*
X132583333Y-117345238D01*
X132607142Y-117297619D01*
X132654761Y-117250000D01*
X132726190Y-117226190D01*
X132773809Y-117226190D01*
X132845238Y-117250000D01*
X132869047Y-117273809D01*
X133083333Y-117535714D02*
X133464285Y-117535714D01*
X133869047Y-117464285D02*
X133940476Y-117488095D01*
X133964285Y-117511904D01*
X133988095Y-117559523D01*
X133988095Y-117630952D01*
X133964285Y-117678571D01*
X133940476Y-117702380D01*
X133892857Y-117726190D01*
X133702380Y-117726190D01*
X133702380Y-117226190D01*
X133869047Y-117226190D01*
X133916666Y-117250000D01*
X133940476Y-117273809D01*
X133964285Y-117321428D01*
X133964285Y-117369047D01*
X133940476Y-117416666D01*
X133916666Y-117440476D01*
X133869047Y-117464285D01*
X133702380Y-117464285D01*
X134297619Y-117488095D02*
X134297619Y-117726190D01*
X134130952Y-117226190D02*
X134297619Y-117488095D01*
X134464285Y-117226190D01*
X134630952Y-117535714D02*
X135011904Y-117535714D01*
X135226190Y-117702380D02*
X135297619Y-117726190D01*
X135416666Y-117726190D01*
X135464285Y-117702380D01*
X135488095Y-117678571D01*
X135511904Y-117630952D01*
X135511904Y-117583333D01*
X135488095Y-117535714D01*
X135464285Y-117511904D01*
X135416666Y-117488095D01*
X135321428Y-117464285D01*
X135273809Y-117440476D01*
X135250000Y-117416666D01*
X135226190Y-117369047D01*
X135226190Y-117321428D01*
X135250000Y-117273809D01*
X135273809Y-117250000D01*
X135321428Y-117226190D01*
X135440476Y-117226190D01*
X135511904Y-117250000D01*
X135702380Y-117583333D02*
X135940476Y-117583333D01*
X135654761Y-117726190D02*
X135821428Y-117226190D01*
X135988095Y-117726190D01*
D11*
X125285714Y-109647380D02*
X125285714Y-108647380D01*
X125666666Y-108647380D01*
X125761904Y-108695000D01*
X125809523Y-108742619D01*
X125857142Y-108837857D01*
X125857142Y-108980714D01*
X125809523Y-109075952D01*
X125761904Y-109123571D01*
X125666666Y-109171190D01*
X125285714Y-109171190D01*
X126285714Y-109123571D02*
X126619047Y-109123571D01*
X126761904Y-109647380D02*
X126285714Y-109647380D01*
X126285714Y-108647380D01*
X126761904Y-108647380D01*
X127761904Y-109552142D02*
X127714285Y-109599761D01*
X127571428Y-109647380D01*
X127476190Y-109647380D01*
X127333333Y-109599761D01*
X127238095Y-109504523D01*
X127190476Y-109409285D01*
X127142857Y-109218809D01*
X127142857Y-109075952D01*
X127190476Y-108885476D01*
X127238095Y-108790238D01*
X127333333Y-108695000D01*
X127476190Y-108647380D01*
X127571428Y-108647380D01*
X127714285Y-108695000D01*
X127761904Y-108742619D01*
X128714285Y-109647380D02*
X128142857Y-109647380D01*
X128428571Y-109647380D02*
X128428571Y-108647380D01*
X128333333Y-108790238D01*
X128238095Y-108885476D01*
X128142857Y-108933095D01*
X129666666Y-109647380D02*
X129095238Y-109647380D01*
X129380952Y-109647380D02*
X129380952Y-108647380D01*
X129285714Y-108790238D01*
X129190476Y-108885476D01*
X129095238Y-108933095D01*
X130666666Y-109647380D02*
X130333333Y-109171190D01*
X130095238Y-109647380D02*
X130095238Y-108647380D01*
X130476190Y-108647380D01*
X130571428Y-108695000D01*
X130619047Y-108742619D01*
X130666666Y-108837857D01*
X130666666Y-108980714D01*
X130619047Y-109075952D01*
X130571428Y-109123571D01*
X130476190Y-109171190D01*
X130095238Y-109171190D01*
X131857142Y-109647380D02*
X131857142Y-108647380D01*
X131857142Y-109028333D02*
X131952380Y-108980714D01*
X132142857Y-108980714D01*
X132238095Y-109028333D01*
X132285714Y-109075952D01*
X132333333Y-109171190D01*
X132333333Y-109456904D01*
X132285714Y-109552142D01*
X132238095Y-109599761D01*
X132142857Y-109647380D01*
X131952380Y-109647380D01*
X131857142Y-109599761D01*
X132761904Y-109647380D02*
X132761904Y-108980714D01*
X132761904Y-109171190D02*
X132809523Y-109075952D01*
X132857142Y-109028333D01*
X132952380Y-108980714D01*
X133047619Y-108980714D01*
X133761904Y-109599761D02*
X133666666Y-109647380D01*
X133476190Y-109647380D01*
X133380952Y-109599761D01*
X133333333Y-109504523D01*
X133333333Y-109123571D01*
X133380952Y-109028333D01*
X133476190Y-108980714D01*
X133666666Y-108980714D01*
X133761904Y-109028333D01*
X133809523Y-109123571D01*
X133809523Y-109218809D01*
X133333333Y-109314047D01*
X134666666Y-109647380D02*
X134666666Y-109123571D01*
X134619047Y-109028333D01*
X134523809Y-108980714D01*
X134333333Y-108980714D01*
X134238095Y-109028333D01*
X134666666Y-109599761D02*
X134571428Y-109647380D01*
X134333333Y-109647380D01*
X134238095Y-109599761D01*
X134190476Y-109504523D01*
X134190476Y-109409285D01*
X134238095Y-109314047D01*
X134333333Y-109266428D01*
X134571428Y-109266428D01*
X134666666Y-109218809D01*
X135142857Y-109647380D02*
X135142857Y-108647380D01*
X135238095Y-109266428D02*
X135523809Y-109647380D01*
X135523809Y-108980714D02*
X135142857Y-109361666D01*
X136095238Y-109647380D02*
X136000000Y-109599761D01*
X135952380Y-109552142D01*
X135904761Y-109456904D01*
X135904761Y-109171190D01*
X135952380Y-109075952D01*
X136000000Y-109028333D01*
X136095238Y-108980714D01*
X136238095Y-108980714D01*
X136333333Y-109028333D01*
X136380952Y-109075952D01*
X136428571Y-109171190D01*
X136428571Y-109456904D01*
X136380952Y-109552142D01*
X136333333Y-109599761D01*
X136238095Y-109647380D01*
X136095238Y-109647380D01*
X137285714Y-108980714D02*
X137285714Y-109647380D01*
X136857142Y-108980714D02*
X136857142Y-109504523D01*
X136904761Y-109599761D01*
X137000000Y-109647380D01*
X137142857Y-109647380D01*
X137238095Y-109599761D01*
X137285714Y-109552142D01*
X137619047Y-108980714D02*
X138000000Y-108980714D01*
X137761904Y-108647380D02*
X137761904Y-109504523D01*
X137809523Y-109599761D01*
X137904761Y-109647380D01*
X138000000Y-109647380D01*
X139000000Y-108980714D02*
X139238095Y-109647380D01*
X139476190Y-108980714D01*
X140380952Y-109647380D02*
X139809523Y-109647380D01*
X140095238Y-109647380D02*
X140095238Y-108647380D01*
X140000000Y-108790238D01*
X139904761Y-108885476D01*
X139809523Y-108933095D01*
X140809523Y-109552142D02*
X140857142Y-109599761D01*
X140809523Y-109647380D01*
X140761904Y-109599761D01*
X140809523Y-109552142D01*
X140809523Y-109647380D01*
X141476190Y-108647380D02*
X141571428Y-108647380D01*
X141666666Y-108695000D01*
X141714285Y-108742619D01*
X141761904Y-108837857D01*
X141809523Y-109028333D01*
X141809523Y-109266428D01*
X141761904Y-109456904D01*
X141714285Y-109552142D01*
X141666666Y-109599761D01*
X141571428Y-109647380D01*
X141476190Y-109647380D01*
X141380952Y-109599761D01*
X141333333Y-109552142D01*
X141285714Y-109456904D01*
X141238095Y-109266428D01*
X141238095Y-109028333D01*
X141285714Y-108837857D01*
X141333333Y-108742619D01*
X141380952Y-108695000D01*
X141476190Y-108647380D01*
X142428571Y-108647380D02*
X142523809Y-108647380D01*
X142619047Y-108695000D01*
X142666666Y-108742619D01*
X142714285Y-108837857D01*
X142761904Y-109028333D01*
X142761904Y-109266428D01*
X142714285Y-109456904D01*
X142666666Y-109552142D01*
X142619047Y-109599761D01*
X142523809Y-109647380D01*
X142428571Y-109647380D01*
X142333333Y-109599761D01*
X142285714Y-109552142D01*
X142238095Y-109456904D01*
X142190476Y-109266428D01*
X142190476Y-109028333D01*
X142238095Y-108837857D01*
X142285714Y-108742619D01*
X142333333Y-108695000D01*
X142428571Y-108647380D01*
X127547619Y-110590714D02*
X127547619Y-111400238D01*
X127500000Y-111495476D01*
X127452380Y-111543095D01*
X127357142Y-111590714D01*
X127214285Y-111590714D01*
X127119047Y-111543095D01*
X127547619Y-111209761D02*
X127452380Y-111257380D01*
X127261904Y-111257380D01*
X127166666Y-111209761D01*
X127119047Y-111162142D01*
X127071428Y-111066904D01*
X127071428Y-110781190D01*
X127119047Y-110685952D01*
X127166666Y-110638333D01*
X127261904Y-110590714D01*
X127452380Y-110590714D01*
X127547619Y-110638333D01*
X128023809Y-111257380D02*
X128023809Y-110590714D01*
X128023809Y-110257380D02*
X127976190Y-110305000D01*
X128023809Y-110352619D01*
X128071428Y-110305000D01*
X128023809Y-110257380D01*
X128023809Y-110352619D01*
X128357142Y-110590714D02*
X128738095Y-110590714D01*
X128500000Y-110257380D02*
X128500000Y-111114523D01*
X128547619Y-111209761D01*
X128642857Y-111257380D01*
X128738095Y-111257380D01*
X129071428Y-111257380D02*
X129071428Y-110257380D01*
X129500000Y-111257380D02*
X129500000Y-110733571D01*
X129452380Y-110638333D01*
X129357142Y-110590714D01*
X129214285Y-110590714D01*
X129119047Y-110638333D01*
X129071428Y-110685952D01*
X130404761Y-110590714D02*
X130404761Y-111257380D01*
X129976190Y-110590714D02*
X129976190Y-111114523D01*
X130023809Y-111209761D01*
X130119047Y-111257380D01*
X130261904Y-111257380D01*
X130357142Y-111209761D01*
X130404761Y-111162142D01*
X130880952Y-111257380D02*
X130880952Y-110257380D01*
X130880952Y-110638333D02*
X130976190Y-110590714D01*
X131166666Y-110590714D01*
X131261904Y-110638333D01*
X131309523Y-110685952D01*
X131357142Y-110781190D01*
X131357142Y-111066904D01*
X131309523Y-111162142D01*
X131261904Y-111209761D01*
X131166666Y-111257380D01*
X130976190Y-111257380D01*
X130880952Y-111209761D01*
X131785714Y-111162142D02*
X131833333Y-111209761D01*
X131785714Y-111257380D01*
X131738095Y-111209761D01*
X131785714Y-111162142D01*
X131785714Y-111257380D01*
X132690476Y-111209761D02*
X132595238Y-111257380D01*
X132404761Y-111257380D01*
X132309523Y-111209761D01*
X132261904Y-111162142D01*
X132214285Y-111066904D01*
X132214285Y-110781190D01*
X132261904Y-110685952D01*
X132309523Y-110638333D01*
X132404761Y-110590714D01*
X132595238Y-110590714D01*
X132690476Y-110638333D01*
X133261904Y-111257380D02*
X133166666Y-111209761D01*
X133119047Y-111162142D01*
X133071428Y-111066904D01*
X133071428Y-110781190D01*
X133119047Y-110685952D01*
X133166666Y-110638333D01*
X133261904Y-110590714D01*
X133404761Y-110590714D01*
X133500000Y-110638333D01*
X133547619Y-110685952D01*
X133595238Y-110781190D01*
X133595238Y-111066904D01*
X133547619Y-111162142D01*
X133500000Y-111209761D01*
X133404761Y-111257380D01*
X133261904Y-111257380D01*
X134023809Y-111257380D02*
X134023809Y-110590714D01*
X134023809Y-110685952D02*
X134071428Y-110638333D01*
X134166666Y-110590714D01*
X134309523Y-110590714D01*
X134404761Y-110638333D01*
X134452380Y-110733571D01*
X134452380Y-111257380D01*
X134452380Y-110733571D02*
X134500000Y-110638333D01*
X134595238Y-110590714D01*
X134738095Y-110590714D01*
X134833333Y-110638333D01*
X134880952Y-110733571D01*
X134880952Y-111257380D01*
X136071428Y-110209761D02*
X135214285Y-111495476D01*
X136833333Y-111257380D02*
X136833333Y-110257380D01*
X136833333Y-111209761D02*
X136738095Y-111257380D01*
X136547619Y-111257380D01*
X136452380Y-111209761D01*
X136404761Y-111162142D01*
X136357142Y-111066904D01*
X136357142Y-110781190D01*
X136404761Y-110685952D01*
X136452380Y-110638333D01*
X136547619Y-110590714D01*
X136738095Y-110590714D01*
X136833333Y-110638333D01*
X137309523Y-111257380D02*
X137309523Y-110590714D01*
X137309523Y-110781190D02*
X137357142Y-110685952D01*
X137404761Y-110638333D01*
X137500000Y-110590714D01*
X137595238Y-110590714D01*
X138309523Y-111209761D02*
X138214285Y-111257380D01*
X138023809Y-111257380D01*
X137928571Y-111209761D01*
X137880952Y-111114523D01*
X137880952Y-110733571D01*
X137928571Y-110638333D01*
X138023809Y-110590714D01*
X138214285Y-110590714D01*
X138309523Y-110638333D01*
X138357142Y-110733571D01*
X138357142Y-110828809D01*
X137880952Y-110924047D01*
X138738095Y-111209761D02*
X138833333Y-111257380D01*
X139023809Y-111257380D01*
X139119047Y-111209761D01*
X139166666Y-111114523D01*
X139166666Y-111066904D01*
X139119047Y-110971666D01*
X139023809Y-110924047D01*
X138880952Y-110924047D01*
X138785714Y-110876428D01*
X138738095Y-110781190D01*
X138738095Y-110733571D01*
X138785714Y-110638333D01*
X138880952Y-110590714D01*
X139023809Y-110590714D01*
X139119047Y-110638333D01*
X140023809Y-111209761D02*
X139928571Y-111257380D01*
X139738095Y-111257380D01*
X139642857Y-111209761D01*
X139595238Y-111162142D01*
X139547619Y-111066904D01*
X139547619Y-110781190D01*
X139595238Y-110685952D01*
X139642857Y-110638333D01*
X139738095Y-110590714D01*
X139928571Y-110590714D01*
X140023809Y-110638333D01*
X140595238Y-111257380D02*
X140500000Y-111209761D01*
X140452380Y-111162142D01*
X140404761Y-111066904D01*
X140404761Y-110781190D01*
X140452380Y-110685952D01*
X140500000Y-110638333D01*
X140595238Y-110590714D01*
X140738095Y-110590714D01*
X140833333Y-110638333D01*
X140880952Y-110685952D01*
X140928571Y-110781190D01*
X140928571Y-111066904D01*
X140880952Y-111162142D01*
X140833333Y-111209761D01*
X140738095Y-111257380D01*
X140595238Y-111257380D01*
X130379761Y-105192738D02*
X130427380Y-105049880D01*
X130427380Y-104811785D01*
X130379761Y-104716547D01*
X130332142Y-104668928D01*
X130236904Y-104621309D01*
X130141666Y-104621309D01*
X130046428Y-104668928D01*
X129998809Y-104716547D01*
X129951190Y-104811785D01*
X129903571Y-105002261D01*
X129855952Y-105097500D01*
X129808333Y-105145119D01*
X129713095Y-105192738D01*
X129617857Y-105192738D01*
X129522619Y-105145119D01*
X129475000Y-105097500D01*
X129427380Y-105002261D01*
X129427380Y-104764166D01*
X129475000Y-104621309D01*
X129427380Y-104287976D02*
X130427380Y-104049880D01*
X129713095Y-103859404D01*
X130427380Y-103668928D01*
X129427380Y-103430833D01*
X130427380Y-102526071D02*
X130427380Y-103097500D01*
X130427380Y-102811785D02*
X129427380Y-102811785D01*
X129570238Y-102907023D01*
X129665476Y-103002261D01*
X129713095Y-103097500D01*
X130046428Y-102097500D02*
X130046428Y-101335595D01*
X138429761Y-105192738D02*
X138477380Y-105049880D01*
X138477380Y-104811785D01*
X138429761Y-104716547D01*
X138382142Y-104668928D01*
X138286904Y-104621309D01*
X138191666Y-104621309D01*
X138096428Y-104668928D01*
X138048809Y-104716547D01*
X138001190Y-104811785D01*
X137953571Y-105002261D01*
X137905952Y-105097500D01*
X137858333Y-105145119D01*
X137763095Y-105192738D01*
X137667857Y-105192738D01*
X137572619Y-105145119D01*
X137525000Y-105097500D01*
X137477380Y-105002261D01*
X137477380Y-104764166D01*
X137525000Y-104621309D01*
X137477380Y-104287976D02*
X138477380Y-104049880D01*
X137763095Y-103859404D01*
X138477380Y-103668928D01*
X137477380Y-103430833D01*
X137572619Y-103097500D02*
X137525000Y-103049880D01*
X137477380Y-102954642D01*
X137477380Y-102716547D01*
X137525000Y-102621309D01*
X137572619Y-102573690D01*
X137667857Y-102526071D01*
X137763095Y-102526071D01*
X137905952Y-102573690D01*
X138477380Y-103145119D01*
X138477380Y-102526071D01*
X138096428Y-102097500D02*
X138096428Y-101335595D01*
X126021428Y-128664404D02*
X126021428Y-127902500D01*
X125450000Y-126902500D02*
X125402380Y-126997738D01*
X125402380Y-127140595D01*
X125450000Y-127283452D01*
X125545238Y-127378690D01*
X125640476Y-127426309D01*
X125830952Y-127473928D01*
X125973809Y-127473928D01*
X126164285Y-127426309D01*
X126259523Y-127378690D01*
X126354761Y-127283452D01*
X126402380Y-127140595D01*
X126402380Y-127045357D01*
X126354761Y-126902500D01*
X126307142Y-126854880D01*
X125973809Y-126854880D01*
X125973809Y-127045357D01*
X126402380Y-126426309D02*
X125402380Y-126426309D01*
X126402380Y-125854880D01*
X125402380Y-125854880D01*
X126402380Y-125378690D02*
X125402380Y-125378690D01*
X125402380Y-125140595D01*
X125450000Y-124997738D01*
X125545238Y-124902500D01*
X125640476Y-124854880D01*
X125830952Y-124807261D01*
X125973809Y-124807261D01*
X126164285Y-124854880D01*
X126259523Y-124902500D01*
X126354761Y-124997738D01*
X126402380Y-125140595D01*
X126402380Y-125378690D01*
X127631428Y-128664404D02*
X127631428Y-127902500D01*
X127012380Y-127569166D02*
X128012380Y-127235833D01*
X127012380Y-126902500D01*
X127917142Y-125997738D02*
X127964761Y-126045357D01*
X128012380Y-126188214D01*
X128012380Y-126283452D01*
X127964761Y-126426309D01*
X127869523Y-126521547D01*
X127774285Y-126569166D01*
X127583809Y-126616785D01*
X127440952Y-126616785D01*
X127250476Y-126569166D01*
X127155238Y-126521547D01*
X127060000Y-126426309D01*
X127012380Y-126283452D01*
X127012380Y-126188214D01*
X127060000Y-126045357D01*
X127107619Y-125997738D01*
X127917142Y-124997738D02*
X127964761Y-125045357D01*
X128012380Y-125188214D01*
X128012380Y-125283452D01*
X127964761Y-125426309D01*
X127869523Y-125521547D01*
X127774285Y-125569166D01*
X127583809Y-125616785D01*
X127440952Y-125616785D01*
X127250476Y-125569166D01*
X127155238Y-125521547D01*
X127060000Y-125426309D01*
X127012380Y-125283452D01*
X127012380Y-125188214D01*
X127060000Y-125045357D01*
X127107619Y-124997738D01*
X140511428Y-128664404D02*
X140511428Y-127902500D01*
X140368571Y-127092976D02*
X140416190Y-126950119D01*
X140463809Y-126902500D01*
X140559047Y-126854880D01*
X140701904Y-126854880D01*
X140797142Y-126902500D01*
X140844761Y-126950119D01*
X140892380Y-127045357D01*
X140892380Y-127426309D01*
X139892380Y-127426309D01*
X139892380Y-127092976D01*
X139940000Y-126997738D01*
X139987619Y-126950119D01*
X140082857Y-126902500D01*
X140178095Y-126902500D01*
X140273333Y-126950119D01*
X140320952Y-126997738D01*
X140368571Y-127092976D01*
X140368571Y-127426309D01*
X142121428Y-128664404D02*
X142121428Y-127902500D01*
X142216666Y-127473928D02*
X142216666Y-126997738D01*
X142502380Y-127569166D02*
X141502380Y-127235833D01*
X142502380Y-126902500D01*
%TO.C,R2*%
X138152380Y-119666666D02*
X137676190Y-120000000D01*
X138152380Y-120238095D02*
X137152380Y-120238095D01*
X137152380Y-119857142D01*
X137200000Y-119761904D01*
X137247619Y-119714285D01*
X137342857Y-119666666D01*
X137485714Y-119666666D01*
X137580952Y-119714285D01*
X137628571Y-119761904D01*
X137676190Y-119857142D01*
X137676190Y-120238095D01*
X137247619Y-119285714D02*
X137200000Y-119238095D01*
X137152380Y-119142857D01*
X137152380Y-118904761D01*
X137200000Y-118809523D01*
X137247619Y-118761904D01*
X137342857Y-118714285D01*
X137438095Y-118714285D01*
X137580952Y-118761904D01*
X138152380Y-119333333D01*
X138152380Y-118714285D01*
%TO.C,C2*%
X125057142Y-119666666D02*
X125104761Y-119714285D01*
X125152380Y-119857142D01*
X125152380Y-119952380D01*
X125104761Y-120095238D01*
X125009523Y-120190476D01*
X124914285Y-120238095D01*
X124723809Y-120285714D01*
X124580952Y-120285714D01*
X124390476Y-120238095D01*
X124295238Y-120190476D01*
X124200000Y-120095238D01*
X124152380Y-119952380D01*
X124152380Y-119857142D01*
X124200000Y-119714285D01*
X124247619Y-119666666D01*
X124247619Y-119285714D02*
X124200000Y-119238095D01*
X124152380Y-119142857D01*
X124152380Y-118904761D01*
X124200000Y-118809523D01*
X124247619Y-118761904D01*
X124342857Y-118714285D01*
X124438095Y-118714285D01*
X124580952Y-118761904D01*
X125152380Y-119333333D01*
X125152380Y-118714285D01*
%TO.C,R1*%
X135152380Y-119666666D02*
X134676190Y-120000000D01*
X135152380Y-120238095D02*
X134152380Y-120238095D01*
X134152380Y-119857142D01*
X134200000Y-119761904D01*
X134247619Y-119714285D01*
X134342857Y-119666666D01*
X134485714Y-119666666D01*
X134580952Y-119714285D01*
X134628571Y-119761904D01*
X134676190Y-119857142D01*
X134676190Y-120238095D01*
X135152380Y-118714285D02*
X135152380Y-119285714D01*
X135152380Y-119000000D02*
X134152380Y-119000000D01*
X134295238Y-119095238D01*
X134390476Y-119190476D01*
X134438095Y-119285714D01*
%TO.C,R4*%
X128152380Y-119666666D02*
X127676190Y-120000000D01*
X128152380Y-120238095D02*
X127152380Y-120238095D01*
X127152380Y-119857142D01*
X127200000Y-119761904D01*
X127247619Y-119714285D01*
X127342857Y-119666666D01*
X127485714Y-119666666D01*
X127580952Y-119714285D01*
X127628571Y-119761904D01*
X127676190Y-119857142D01*
X127676190Y-120238095D01*
X127485714Y-118809523D02*
X128152380Y-118809523D01*
X127104761Y-119047619D02*
X127819047Y-119285714D01*
X127819047Y-118666666D01*
%TO.C,R3*%
X131152380Y-119666666D02*
X130676190Y-120000000D01*
X131152380Y-120238095D02*
X130152380Y-120238095D01*
X130152380Y-119857142D01*
X130200000Y-119761904D01*
X130247619Y-119714285D01*
X130342857Y-119666666D01*
X130485714Y-119666666D01*
X130580952Y-119714285D01*
X130628571Y-119761904D01*
X130676190Y-119857142D01*
X130676190Y-120238095D01*
X130152380Y-119333333D02*
X130152380Y-118714285D01*
X130533333Y-119047619D01*
X130533333Y-118904761D01*
X130580952Y-118809523D01*
X130628571Y-118761904D01*
X130723809Y-118714285D01*
X130961904Y-118714285D01*
X131057142Y-118761904D01*
X131104761Y-118809523D01*
X131152380Y-118904761D01*
X131152380Y-119190476D01*
X131104761Y-119285714D01*
X131057142Y-119333333D01*
%TO.C,C1*%
X141057142Y-119666666D02*
X141104761Y-119714285D01*
X141152380Y-119857142D01*
X141152380Y-119952380D01*
X141104761Y-120095238D01*
X141009523Y-120190476D01*
X140914285Y-120238095D01*
X140723809Y-120285714D01*
X140580952Y-120285714D01*
X140390476Y-120238095D01*
X140295238Y-120190476D01*
X140200000Y-120095238D01*
X140152380Y-119952380D01*
X140152380Y-119857142D01*
X140200000Y-119714285D01*
X140247619Y-119666666D01*
X141152380Y-118714285D02*
X141152380Y-119285714D01*
X141152380Y-119000000D02*
X140152380Y-119000000D01*
X140295238Y-119095238D01*
X140390476Y-119190476D01*
X140438095Y-119285714D01*
D12*
%TO.C,G\u002A\u002A\u002A*%
X132313440Y-116999360D02*
X132343920Y-116984120D01*
X132343920Y-116984120D02*
X132407420Y-116943480D01*
X132407420Y-116943480D02*
X132501400Y-116882520D01*
X132501400Y-116882520D02*
X132610620Y-116808860D01*
X132610620Y-116808860D02*
X132722380Y-116732660D01*
X132722380Y-116732660D02*
X132811280Y-116671700D01*
X132811280Y-116671700D02*
X132874780Y-116631060D01*
X132874780Y-116631060D02*
X132902720Y-116618360D01*
X132902720Y-116618360D02*
X132915420Y-116623440D01*
X132915420Y-116623440D02*
X132968760Y-116648840D01*
X132968760Y-116648840D02*
X133044960Y-116686940D01*
X133044960Y-116686940D02*
X133088140Y-116709800D01*
X133088140Y-116709800D02*
X133159260Y-116740280D01*
X133159260Y-116740280D02*
X133192280Y-116745360D01*
X133192280Y-116745360D02*
X133199900Y-116737740D01*
X133199900Y-116737740D02*
X133225300Y-116684400D01*
X133225300Y-116684400D02*
X133263400Y-116592960D01*
X133263400Y-116592960D02*
X133316740Y-116471040D01*
X133316740Y-116471040D02*
X133377700Y-116331340D01*
X133377700Y-116331340D02*
X133441200Y-116178940D01*
X133441200Y-116178940D02*
X133507240Y-116024000D01*
X133507240Y-116024000D02*
X133568200Y-115874140D01*
X133568200Y-115874140D02*
X133621540Y-115742060D01*
X133621540Y-115742060D02*
X133664720Y-115632840D01*
X133664720Y-115632840D02*
X133695200Y-115559180D01*
X133695200Y-115559180D02*
X133705360Y-115526160D01*
X133705360Y-115526160D02*
X133702820Y-115518540D01*
X133702820Y-115518540D02*
X133667260Y-115485520D01*
X133667260Y-115485520D02*
X133606300Y-115439800D01*
X133606300Y-115439800D02*
X133474220Y-115333120D01*
X133474220Y-115333120D02*
X133344680Y-115170560D01*
X133344680Y-115170560D02*
X133265940Y-114985140D01*
X133265940Y-114985140D02*
X133238000Y-114781940D01*
X133238000Y-114781940D02*
X133260860Y-114591440D01*
X133260860Y-114591440D02*
X133337060Y-114408560D01*
X133337060Y-114408560D02*
X133464060Y-114246000D01*
X133464060Y-114246000D02*
X133616460Y-114124080D01*
X133616460Y-114124080D02*
X133796800Y-114045340D01*
X133796800Y-114045340D02*
X134000000Y-114022480D01*
X134000000Y-114022480D02*
X134193040Y-114042800D01*
X134193040Y-114042800D02*
X134378460Y-114116460D01*
X134378460Y-114116460D02*
X134543560Y-114240920D01*
X134543560Y-114240920D02*
X134612140Y-114322200D01*
X134612140Y-114322200D02*
X134708660Y-114487300D01*
X134708660Y-114487300D02*
X134762000Y-114665100D01*
X134762000Y-114665100D02*
X134769620Y-114710820D01*
X134769620Y-114710820D02*
X134759460Y-114906400D01*
X134759460Y-114906400D02*
X134703580Y-115091820D01*
X134703580Y-115091820D02*
X134599440Y-115259460D01*
X134599440Y-115259460D02*
X134457200Y-115396620D01*
X134457200Y-115396620D02*
X134439420Y-115411860D01*
X134439420Y-115411860D02*
X134370840Y-115460120D01*
X134370840Y-115460120D02*
X134327660Y-115495680D01*
X134327660Y-115495680D02*
X134292100Y-115523620D01*
X134292100Y-115523620D02*
X134541020Y-116123060D01*
X134541020Y-116123060D02*
X134581660Y-116217040D01*
X134581660Y-116217040D02*
X134650240Y-116382140D01*
X134650240Y-116382140D02*
X134708660Y-116521840D01*
X134708660Y-116521840D02*
X134756920Y-116633600D01*
X134756920Y-116633600D02*
X134789940Y-116709800D01*
X134789940Y-116709800D02*
X134805180Y-116740280D01*
X134805180Y-116740280D02*
X134807720Y-116740280D01*
X134807720Y-116740280D02*
X134828040Y-116745360D01*
X134828040Y-116745360D02*
X134873760Y-116727580D01*
X134873760Y-116727580D02*
X134957580Y-116686940D01*
X134957580Y-116686940D02*
X135013460Y-116659000D01*
X135013460Y-116659000D02*
X135076960Y-116628520D01*
X135076960Y-116628520D02*
X135104900Y-116618360D01*
X135104900Y-116618360D02*
X135130300Y-116631060D01*
X135130300Y-116631060D02*
X135191260Y-116669160D01*
X135191260Y-116669160D02*
X135280160Y-116730120D01*
X135280160Y-116730120D02*
X135386840Y-116803780D01*
X135386840Y-116803780D02*
X135488440Y-116872360D01*
X135488440Y-116872360D02*
X135582420Y-116933320D01*
X135582420Y-116933320D02*
X135651000Y-116976500D01*
X135651000Y-116976500D02*
X135684020Y-116994280D01*
X135684020Y-116994280D02*
X135689100Y-116994280D01*
X135689100Y-116994280D02*
X135719580Y-116979040D01*
X135719580Y-116979040D02*
X135772920Y-116933320D01*
X135772920Y-116933320D02*
X135854200Y-116857120D01*
X135854200Y-116857120D02*
X135971040Y-116742820D01*
X135971040Y-116742820D02*
X135988820Y-116725040D01*
X135988820Y-116725040D02*
X136082800Y-116628520D01*
X136082800Y-116628520D02*
X136159000Y-116547240D01*
X136159000Y-116547240D02*
X136212340Y-116491360D01*
X136212340Y-116491360D02*
X136230120Y-116463420D01*
X136230120Y-116463420D02*
X136212340Y-116430400D01*
X136212340Y-116430400D02*
X136169160Y-116364360D01*
X136169160Y-116364360D02*
X136108200Y-116267840D01*
X136108200Y-116267840D02*
X136032000Y-116156080D01*
X136032000Y-116156080D02*
X135833880Y-115869060D01*
X135833880Y-115869060D02*
X135943100Y-115597280D01*
X135943100Y-115597280D02*
X135976120Y-115513460D01*
X135976120Y-115513460D02*
X136019300Y-115411860D01*
X136019300Y-115411860D02*
X136049780Y-115340740D01*
X136049780Y-115340740D02*
X136065020Y-115307720D01*
X136065020Y-115307720D02*
X136095500Y-115297560D01*
X136095500Y-115297560D02*
X136169160Y-115279780D01*
X136169160Y-115279780D02*
X136278380Y-115256920D01*
X136278380Y-115256920D02*
X136407920Y-115234060D01*
X136407920Y-115234060D02*
X136529840Y-115211200D01*
X136529840Y-115211200D02*
X136639060Y-115190880D01*
X136639060Y-115190880D02*
X136720340Y-115175640D01*
X136720340Y-115175640D02*
X136755900Y-115168020D01*
X136755900Y-115168020D02*
X136766060Y-115162940D01*
X136766060Y-115162940D02*
X136771140Y-115145160D01*
X136771140Y-115145160D02*
X136776220Y-115107060D01*
X136776220Y-115107060D02*
X136778760Y-115041020D01*
X136778760Y-115041020D02*
X136781300Y-114934340D01*
X136781300Y-114934340D02*
X136781300Y-114781940D01*
X136781300Y-114781940D02*
X136781300Y-114764160D01*
X136781300Y-114764160D02*
X136778760Y-114616840D01*
X136778760Y-114616840D02*
X136776220Y-114502540D01*
X136776220Y-114502540D02*
X136773680Y-114426340D01*
X136773680Y-114426340D02*
X136768600Y-114395860D01*
X136768600Y-114395860D02*
X136733040Y-114388240D01*
X136733040Y-114388240D02*
X136654300Y-114370460D01*
X136654300Y-114370460D02*
X136545080Y-114350140D01*
X136545080Y-114350140D02*
X136413000Y-114324740D01*
X136413000Y-114324740D02*
X136402840Y-114322200D01*
X136402840Y-114322200D02*
X136273300Y-114296800D01*
X136273300Y-114296800D02*
X136161540Y-114273940D01*
X136161540Y-114273940D02*
X136085340Y-114256160D01*
X136085340Y-114256160D02*
X136052320Y-114246000D01*
X136052320Y-114246000D02*
X136044700Y-114235840D01*
X136044700Y-114235840D02*
X136019300Y-114185040D01*
X136019300Y-114185040D02*
X135981200Y-114103760D01*
X135981200Y-114103760D02*
X135938020Y-114004700D01*
X135938020Y-114004700D02*
X135894840Y-113900560D01*
X135894840Y-113900560D02*
X135856740Y-113809120D01*
X135856740Y-113809120D02*
X135831340Y-113738000D01*
X135831340Y-113738000D02*
X135823720Y-113707520D01*
X135823720Y-113707520D02*
X135826260Y-113707520D01*
X135826260Y-113707520D02*
X135844040Y-113674500D01*
X135844040Y-113674500D02*
X135889760Y-113605920D01*
X135889760Y-113605920D02*
X135953260Y-113511940D01*
X135953260Y-113511940D02*
X136032000Y-113400180D01*
X136032000Y-113400180D02*
X136037080Y-113392560D01*
X136037080Y-113392560D02*
X136113280Y-113280800D01*
X136113280Y-113280800D02*
X136174240Y-113186820D01*
X136174240Y-113186820D02*
X136214880Y-113118240D01*
X136214880Y-113118240D02*
X136230120Y-113087760D01*
X136230120Y-113087760D02*
X136204720Y-113054740D01*
X136204720Y-113054740D02*
X136148840Y-112991240D01*
X136148840Y-112991240D02*
X136067560Y-112904880D01*
X136067560Y-112904880D02*
X135968500Y-112808360D01*
X135968500Y-112808360D02*
X135938020Y-112777880D01*
X135938020Y-112777880D02*
X135831340Y-112671200D01*
X135831340Y-112671200D02*
X135755140Y-112602620D01*
X135755140Y-112602620D02*
X135709420Y-112564520D01*
X135709420Y-112564520D02*
X135686560Y-112556900D01*
X135686560Y-112556900D02*
X135684020Y-112556900D01*
X135684020Y-112556900D02*
X135651000Y-112577220D01*
X135651000Y-112577220D02*
X135582420Y-112622940D01*
X135582420Y-112622940D02*
X135485900Y-112688980D01*
X135485900Y-112688980D02*
X135374140Y-112765180D01*
X135374140Y-112765180D02*
X135366520Y-112770260D01*
X135366520Y-112770260D02*
X135254760Y-112846460D01*
X135254760Y-112846460D02*
X135160780Y-112909960D01*
X135160780Y-112909960D02*
X135094740Y-112953140D01*
X135094740Y-112953140D02*
X135066800Y-112970920D01*
X135066800Y-112970920D02*
X135061720Y-112970920D01*
X135061720Y-112970920D02*
X135016000Y-112955680D01*
X135016000Y-112955680D02*
X134937260Y-112927740D01*
X134937260Y-112927740D02*
X134840740Y-112892180D01*
X134840740Y-112892180D02*
X134736600Y-112849000D01*
X134736600Y-112849000D02*
X134645160Y-112810900D01*
X134645160Y-112810900D02*
X134574040Y-112777880D01*
X134574040Y-112777880D02*
X134541020Y-112760100D01*
X134541020Y-112760100D02*
X134541020Y-112757560D01*
X134541020Y-112757560D02*
X134528320Y-112719460D01*
X134528320Y-112719460D02*
X134508000Y-112635640D01*
X134508000Y-112635640D02*
X134485140Y-112521340D01*
X134485140Y-112521340D02*
X134459740Y-112384180D01*
X134459740Y-112384180D02*
X134454660Y-112361320D01*
X134454660Y-112361320D02*
X134429260Y-112229240D01*
X134429260Y-112229240D02*
X134408940Y-112120020D01*
X134408940Y-112120020D02*
X134393700Y-112043820D01*
X134393700Y-112043820D02*
X134386080Y-112013340D01*
X134386080Y-112013340D02*
X134365760Y-112008260D01*
X134365760Y-112008260D02*
X134302260Y-112003180D01*
X134302260Y-112003180D02*
X134203200Y-112000640D01*
X134203200Y-112000640D02*
X134083820Y-112000640D01*
X134083820Y-112000640D02*
X133959360Y-112000640D01*
X133959360Y-112000640D02*
X133834900Y-112003180D01*
X133834900Y-112003180D02*
X133730760Y-112008260D01*
X133730760Y-112008260D02*
X133654560Y-112013340D01*
X133654560Y-112013340D02*
X133624080Y-112018420D01*
X133624080Y-112018420D02*
X133624080Y-112020960D01*
X133624080Y-112020960D02*
X133611380Y-112061600D01*
X133611380Y-112061600D02*
X133593600Y-112145420D01*
X133593600Y-112145420D02*
X133570740Y-112259720D01*
X133570740Y-112259720D02*
X133542800Y-112396880D01*
X133542800Y-112396880D02*
X133537720Y-112422280D01*
X133537720Y-112422280D02*
X133514860Y-112554360D01*
X133514860Y-112554360D02*
X133492000Y-112661040D01*
X133492000Y-112661040D02*
X133476760Y-112737240D01*
X133476760Y-112737240D02*
X133466600Y-112765180D01*
X133466600Y-112765180D02*
X133456440Y-112772800D01*
X133456440Y-112772800D02*
X133400560Y-112795660D01*
X133400560Y-112795660D02*
X133311660Y-112833760D01*
X133311660Y-112833760D02*
X133202440Y-112876940D01*
X133202440Y-112876940D02*
X132948440Y-112981080D01*
X132948440Y-112981080D02*
X132636020Y-112765180D01*
X132636020Y-112765180D02*
X132605540Y-112747400D01*
X132605540Y-112747400D02*
X132493780Y-112671200D01*
X132493780Y-112671200D02*
X132402340Y-112607700D01*
X132402340Y-112607700D02*
X132338840Y-112567060D01*
X132338840Y-112567060D02*
X132310900Y-112551820D01*
X132310900Y-112551820D02*
X132308360Y-112554360D01*
X132308360Y-112554360D02*
X132277880Y-112579760D01*
X132277880Y-112579760D02*
X132216920Y-112638180D01*
X132216920Y-112638180D02*
X132130560Y-112722000D01*
X132130560Y-112722000D02*
X132034040Y-112818520D01*
X132034040Y-112818520D02*
X131960380Y-112892180D01*
X131960380Y-112892180D02*
X131874020Y-112978540D01*
X131874020Y-112978540D02*
X131820680Y-113036960D01*
X131820680Y-113036960D02*
X131790200Y-113075060D01*
X131790200Y-113075060D02*
X131780040Y-113097920D01*
X131780040Y-113097920D02*
X131782580Y-113113160D01*
X131782580Y-113113160D02*
X131802900Y-113146180D01*
X131802900Y-113146180D02*
X131848620Y-113214760D01*
X131848620Y-113214760D02*
X131912120Y-113308740D01*
X131912120Y-113308740D02*
X131988320Y-113420500D01*
X131988320Y-113420500D02*
X132051820Y-113511940D01*
X132051820Y-113511940D02*
X132117860Y-113616080D01*
X132117860Y-113616080D02*
X132163580Y-113692280D01*
X132163580Y-113692280D02*
X132178820Y-113727840D01*
X132178820Y-113727840D02*
X132173740Y-113743080D01*
X132173740Y-113743080D02*
X132153420Y-113804040D01*
X132153420Y-113804040D02*
X132115320Y-113898020D01*
X132115320Y-113898020D02*
X132069600Y-114007240D01*
X132069600Y-114007240D02*
X131960380Y-114253620D01*
X131960380Y-114253620D02*
X131797820Y-114286640D01*
X131797820Y-114286640D02*
X131698760Y-114304420D01*
X131698760Y-114304420D02*
X131561600Y-114329820D01*
X131561600Y-114329820D02*
X131432060Y-114355220D01*
X131432060Y-114355220D02*
X131226320Y-114395860D01*
X131226320Y-114395860D02*
X131218700Y-115147700D01*
X131218700Y-115147700D02*
X131249180Y-115162940D01*
X131249180Y-115162940D02*
X131279660Y-115170560D01*
X131279660Y-115170560D02*
X131355860Y-115188340D01*
X131355860Y-115188340D02*
X131465080Y-115208660D01*
X131465080Y-115208660D02*
X131592080Y-115234060D01*
X131592080Y-115234060D02*
X131701300Y-115254380D01*
X131701300Y-115254380D02*
X131813060Y-115274700D01*
X131813060Y-115274700D02*
X131891800Y-115289940D01*
X131891800Y-115289940D02*
X131927360Y-115297560D01*
X131927360Y-115297560D02*
X131934980Y-115307720D01*
X131934980Y-115307720D02*
X131962920Y-115361060D01*
X131962920Y-115361060D02*
X132001020Y-115447420D01*
X132001020Y-115447420D02*
X132044200Y-115549020D01*
X132044200Y-115549020D02*
X132089920Y-115653160D01*
X132089920Y-115653160D02*
X132128020Y-115752220D01*
X132128020Y-115752220D02*
X132155960Y-115825880D01*
X132155960Y-115825880D02*
X132166120Y-115863980D01*
X132166120Y-115863980D02*
X132150880Y-115891920D01*
X132150880Y-115891920D02*
X132107700Y-115957960D01*
X132107700Y-115957960D02*
X132046740Y-116049400D01*
X132046740Y-116049400D02*
X131973080Y-116158620D01*
X131973080Y-116158620D02*
X131899420Y-116267840D01*
X131899420Y-116267840D02*
X131835920Y-116361820D01*
X131835920Y-116361820D02*
X131792740Y-116427860D01*
X131792740Y-116427860D02*
X131772420Y-116458340D01*
X131772420Y-116458340D02*
X131782580Y-116481200D01*
X131782580Y-116481200D02*
X131825760Y-116532000D01*
X131825760Y-116532000D02*
X131909580Y-116618360D01*
X131909580Y-116618360D02*
X132031500Y-116740280D01*
X132031500Y-116740280D02*
X132051820Y-116758060D01*
X132051820Y-116758060D02*
X132148340Y-116852040D01*
X132148340Y-116852040D02*
X132232160Y-116928240D01*
X132232160Y-116928240D02*
X132288040Y-116979040D01*
X132288040Y-116979040D02*
X132313440Y-116999360D01*
X132313440Y-116999360D02*
X132313440Y-116999360D01*
G36*
X134302260Y-112003180D02*
G01*
X134365760Y-112008260D01*
X134386080Y-112013340D01*
X134393700Y-112043820D01*
X134408940Y-112120020D01*
X134429260Y-112229240D01*
X134454660Y-112361320D01*
X134459740Y-112384180D01*
X134485140Y-112521340D01*
X134508000Y-112635640D01*
X134528320Y-112719460D01*
X134541020Y-112757560D01*
X134541020Y-112760100D01*
X134574040Y-112777880D01*
X134645160Y-112810900D01*
X134736600Y-112849000D01*
X134840740Y-112892180D01*
X134937260Y-112927740D01*
X135016000Y-112955680D01*
X135061720Y-112970920D01*
X135066800Y-112970920D01*
X135094740Y-112953140D01*
X135160780Y-112909960D01*
X135254760Y-112846460D01*
X135366520Y-112770260D01*
X135374140Y-112765180D01*
X135485900Y-112688980D01*
X135582420Y-112622940D01*
X135651000Y-112577220D01*
X135684020Y-112556900D01*
X135686560Y-112556900D01*
X135709420Y-112564520D01*
X135755140Y-112602620D01*
X135831340Y-112671200D01*
X135968500Y-112808360D01*
X136067560Y-112904880D01*
X136148840Y-112991240D01*
X136204720Y-113054740D01*
X136230120Y-113087760D01*
X136214880Y-113118240D01*
X136174240Y-113186820D01*
X136113280Y-113280800D01*
X136037080Y-113392560D01*
X136032000Y-113400180D01*
X135953260Y-113511940D01*
X135889760Y-113605920D01*
X135844040Y-113674500D01*
X135826260Y-113707520D01*
X135823720Y-113707520D01*
X135831340Y-113738000D01*
X135856740Y-113809120D01*
X135894840Y-113900560D01*
X135938020Y-114004700D01*
X135981200Y-114103760D01*
X136019300Y-114185040D01*
X136044700Y-114235840D01*
X136052320Y-114246000D01*
X136085340Y-114256160D01*
X136161540Y-114273940D01*
X136273300Y-114296800D01*
X136402840Y-114322200D01*
X136413000Y-114324740D01*
X136545080Y-114350140D01*
X136654300Y-114370460D01*
X136733040Y-114388240D01*
X136768600Y-114395860D01*
X136773680Y-114426340D01*
X136776220Y-114502540D01*
X136778760Y-114616840D01*
X136781300Y-114764160D01*
X136781300Y-114934340D01*
X136778760Y-115041020D01*
X136776220Y-115107060D01*
X136771140Y-115145160D01*
X136766060Y-115162940D01*
X136755900Y-115168020D01*
X136720340Y-115175640D01*
X136639060Y-115190880D01*
X136529840Y-115211200D01*
X136407920Y-115234060D01*
X136278380Y-115256920D01*
X136169160Y-115279780D01*
X136095500Y-115297560D01*
X136065020Y-115307720D01*
X136049780Y-115340740D01*
X136019300Y-115411860D01*
X135976120Y-115513460D01*
X135943100Y-115597280D01*
X135833880Y-115869060D01*
X136032000Y-116156080D01*
X136108200Y-116267840D01*
X136169160Y-116364360D01*
X136212340Y-116430400D01*
X136230120Y-116463420D01*
X136212340Y-116491360D01*
X136159000Y-116547240D01*
X136082800Y-116628520D01*
X135988820Y-116725040D01*
X135971040Y-116742820D01*
X135854200Y-116857120D01*
X135772920Y-116933320D01*
X135719580Y-116979040D01*
X135689100Y-116994280D01*
X135684020Y-116994280D01*
X135651000Y-116976500D01*
X135582420Y-116933320D01*
X135488440Y-116872360D01*
X135386840Y-116803780D01*
X135280160Y-116730120D01*
X135191260Y-116669160D01*
X135130300Y-116631060D01*
X135104900Y-116618360D01*
X135076960Y-116628520D01*
X135013460Y-116659000D01*
X134957580Y-116686940D01*
X134873760Y-116727580D01*
X134828040Y-116745360D01*
X134807720Y-116740280D01*
X134805180Y-116740280D01*
X134789940Y-116709800D01*
X134756920Y-116633600D01*
X134708660Y-116521840D01*
X134650240Y-116382140D01*
X134581660Y-116217040D01*
X134541020Y-116123060D01*
X134292100Y-115523620D01*
X134327660Y-115495680D01*
X134370840Y-115460120D01*
X134439420Y-115411860D01*
X134457200Y-115396620D01*
X134599440Y-115259460D01*
X134703580Y-115091820D01*
X134759460Y-114906400D01*
X134769620Y-114710820D01*
X134762000Y-114665100D01*
X134708660Y-114487300D01*
X134612140Y-114322200D01*
X134543560Y-114240920D01*
X134378460Y-114116460D01*
X134193040Y-114042800D01*
X134000000Y-114022480D01*
X133796800Y-114045340D01*
X133616460Y-114124080D01*
X133464060Y-114246000D01*
X133337060Y-114408560D01*
X133260860Y-114591440D01*
X133238000Y-114781940D01*
X133265940Y-114985140D01*
X133344680Y-115170560D01*
X133474220Y-115333120D01*
X133606300Y-115439800D01*
X133667260Y-115485520D01*
X133702820Y-115518540D01*
X133705360Y-115526160D01*
X133695200Y-115559180D01*
X133664720Y-115632840D01*
X133621540Y-115742060D01*
X133568200Y-115874140D01*
X133507240Y-116024000D01*
X133441200Y-116178940D01*
X133377700Y-116331340D01*
X133316740Y-116471040D01*
X133263400Y-116592960D01*
X133225300Y-116684400D01*
X133199900Y-116737740D01*
X133192280Y-116745360D01*
X133159260Y-116740280D01*
X133088140Y-116709800D01*
X133044960Y-116686940D01*
X132968760Y-116648840D01*
X132915420Y-116623440D01*
X132902720Y-116618360D01*
X132874780Y-116631060D01*
X132811280Y-116671700D01*
X132722380Y-116732660D01*
X132610620Y-116808860D01*
X132501400Y-116882520D01*
X132407420Y-116943480D01*
X132343920Y-116984120D01*
X132313440Y-116999360D01*
X132288040Y-116979040D01*
X132148340Y-116852040D01*
X132051820Y-116758060D01*
X132031500Y-116740280D01*
X131909580Y-116618360D01*
X131825760Y-116532000D01*
X131782580Y-116481200D01*
X131772420Y-116458340D01*
X131792740Y-116427860D01*
X131835920Y-116361820D01*
X131899420Y-116267840D01*
X132046740Y-116049400D01*
X132107700Y-115957960D01*
X132150880Y-115891920D01*
X132166120Y-115863980D01*
X132155960Y-115825880D01*
X132128020Y-115752220D01*
X132089920Y-115653160D01*
X132044200Y-115549020D01*
X132001020Y-115447420D01*
X131962920Y-115361060D01*
X131934980Y-115307720D01*
X131927360Y-115297560D01*
X131891800Y-115289940D01*
X131813060Y-115274700D01*
X131701300Y-115254380D01*
X131592080Y-115234060D01*
X131465080Y-115208660D01*
X131355860Y-115188340D01*
X131279660Y-115170560D01*
X131249180Y-115162940D01*
X131218700Y-115147700D01*
X131226320Y-114395860D01*
X131432060Y-114355220D01*
X131561600Y-114329820D01*
X131698760Y-114304420D01*
X131797820Y-114286640D01*
X131960380Y-114253620D01*
X132069600Y-114007240D01*
X132115320Y-113898020D01*
X132153420Y-113804040D01*
X132178820Y-113727840D01*
X132163580Y-113692280D01*
X132117860Y-113616080D01*
X132051820Y-113511940D01*
X131988320Y-113420500D01*
X131912120Y-113308740D01*
X131848620Y-113214760D01*
X131802900Y-113146180D01*
X131782580Y-113113160D01*
X131780040Y-113097920D01*
X131790200Y-113075060D01*
X131820680Y-113036960D01*
X131874020Y-112978540D01*
X132130560Y-112722000D01*
X132216920Y-112638180D01*
X132277880Y-112579760D01*
X132308360Y-112554360D01*
X132310900Y-112551820D01*
X132338840Y-112567060D01*
X132402340Y-112607700D01*
X132493780Y-112671200D01*
X132605540Y-112747400D01*
X132636020Y-112765180D01*
X132948440Y-112981080D01*
X133202440Y-112876940D01*
X133311660Y-112833760D01*
X133400560Y-112795660D01*
X133456440Y-112772800D01*
X133466600Y-112765180D01*
X133476760Y-112737240D01*
X133492000Y-112661040D01*
X133514860Y-112554360D01*
X133537720Y-112422280D01*
X133542800Y-112396880D01*
X133570740Y-112259720D01*
X133593600Y-112145420D01*
X133611380Y-112061600D01*
X133624080Y-112020960D01*
X133624080Y-112018420D01*
X133654560Y-112013340D01*
X133730760Y-112008260D01*
X133834900Y-112003180D01*
X133959360Y-112000640D01*
X134203200Y-112000640D01*
X134302260Y-112003180D01*
G37*
X134302260Y-112003180D02*
X134365760Y-112008260D01*
X134386080Y-112013340D01*
X134393700Y-112043820D01*
X134408940Y-112120020D01*
X134429260Y-112229240D01*
X134454660Y-112361320D01*
X134459740Y-112384180D01*
X134485140Y-112521340D01*
X134508000Y-112635640D01*
X134528320Y-112719460D01*
X134541020Y-112757560D01*
X134541020Y-112760100D01*
X134574040Y-112777880D01*
X134645160Y-112810900D01*
X134736600Y-112849000D01*
X134840740Y-112892180D01*
X134937260Y-112927740D01*
X135016000Y-112955680D01*
X135061720Y-112970920D01*
X135066800Y-112970920D01*
X135094740Y-112953140D01*
X135160780Y-112909960D01*
X135254760Y-112846460D01*
X135366520Y-112770260D01*
X135374140Y-112765180D01*
X135485900Y-112688980D01*
X135582420Y-112622940D01*
X135651000Y-112577220D01*
X135684020Y-112556900D01*
X135686560Y-112556900D01*
X135709420Y-112564520D01*
X135755140Y-112602620D01*
X135831340Y-112671200D01*
X135968500Y-112808360D01*
X136067560Y-112904880D01*
X136148840Y-112991240D01*
X136204720Y-113054740D01*
X136230120Y-113087760D01*
X136214880Y-113118240D01*
X136174240Y-113186820D01*
X136113280Y-113280800D01*
X136037080Y-113392560D01*
X136032000Y-113400180D01*
X135953260Y-113511940D01*
X135889760Y-113605920D01*
X135844040Y-113674500D01*
X135826260Y-113707520D01*
X135823720Y-113707520D01*
X135831340Y-113738000D01*
X135856740Y-113809120D01*
X135894840Y-113900560D01*
X135938020Y-114004700D01*
X135981200Y-114103760D01*
X136019300Y-114185040D01*
X136044700Y-114235840D01*
X136052320Y-114246000D01*
X136085340Y-114256160D01*
X136161540Y-114273940D01*
X136273300Y-114296800D01*
X136402840Y-114322200D01*
X136413000Y-114324740D01*
X136545080Y-114350140D01*
X136654300Y-114370460D01*
X136733040Y-114388240D01*
X136768600Y-114395860D01*
X136773680Y-114426340D01*
X136776220Y-114502540D01*
X136778760Y-114616840D01*
X136781300Y-114764160D01*
X136781300Y-114934340D01*
X136778760Y-115041020D01*
X136776220Y-115107060D01*
X136771140Y-115145160D01*
X136766060Y-115162940D01*
X136755900Y-115168020D01*
X136720340Y-115175640D01*
X136639060Y-115190880D01*
X136529840Y-115211200D01*
X136407920Y-115234060D01*
X136278380Y-115256920D01*
X136169160Y-115279780D01*
X136095500Y-115297560D01*
X136065020Y-115307720D01*
X136049780Y-115340740D01*
X136019300Y-115411860D01*
X135976120Y-115513460D01*
X135943100Y-115597280D01*
X135833880Y-115869060D01*
X136032000Y-116156080D01*
X136108200Y-116267840D01*
X136169160Y-116364360D01*
X136212340Y-116430400D01*
X136230120Y-116463420D01*
X136212340Y-116491360D01*
X136159000Y-116547240D01*
X136082800Y-116628520D01*
X135988820Y-116725040D01*
X135971040Y-116742820D01*
X135854200Y-116857120D01*
X135772920Y-116933320D01*
X135719580Y-116979040D01*
X135689100Y-116994280D01*
X135684020Y-116994280D01*
X135651000Y-116976500D01*
X135582420Y-116933320D01*
X135488440Y-116872360D01*
X135386840Y-116803780D01*
X135280160Y-116730120D01*
X135191260Y-116669160D01*
X135130300Y-116631060D01*
X135104900Y-116618360D01*
X135076960Y-116628520D01*
X135013460Y-116659000D01*
X134957580Y-116686940D01*
X134873760Y-116727580D01*
X134828040Y-116745360D01*
X134807720Y-116740280D01*
X134805180Y-116740280D01*
X134789940Y-116709800D01*
X134756920Y-116633600D01*
X134708660Y-116521840D01*
X134650240Y-116382140D01*
X134581660Y-116217040D01*
X134541020Y-116123060D01*
X134292100Y-115523620D01*
X134327660Y-115495680D01*
X134370840Y-115460120D01*
X134439420Y-115411860D01*
X134457200Y-115396620D01*
X134599440Y-115259460D01*
X134703580Y-115091820D01*
X134759460Y-114906400D01*
X134769620Y-114710820D01*
X134762000Y-114665100D01*
X134708660Y-114487300D01*
X134612140Y-114322200D01*
X134543560Y-114240920D01*
X134378460Y-114116460D01*
X134193040Y-114042800D01*
X134000000Y-114022480D01*
X133796800Y-114045340D01*
X133616460Y-114124080D01*
X133464060Y-114246000D01*
X133337060Y-114408560D01*
X133260860Y-114591440D01*
X133238000Y-114781940D01*
X133265940Y-114985140D01*
X133344680Y-115170560D01*
X133474220Y-115333120D01*
X133606300Y-115439800D01*
X133667260Y-115485520D01*
X133702820Y-115518540D01*
X133705360Y-115526160D01*
X133695200Y-115559180D01*
X133664720Y-115632840D01*
X133621540Y-115742060D01*
X133568200Y-115874140D01*
X133507240Y-116024000D01*
X133441200Y-116178940D01*
X133377700Y-116331340D01*
X133316740Y-116471040D01*
X133263400Y-116592960D01*
X133225300Y-116684400D01*
X133199900Y-116737740D01*
X133192280Y-116745360D01*
X133159260Y-116740280D01*
X133088140Y-116709800D01*
X133044960Y-116686940D01*
X132968760Y-116648840D01*
X132915420Y-116623440D01*
X132902720Y-116618360D01*
X132874780Y-116631060D01*
X132811280Y-116671700D01*
X132722380Y-116732660D01*
X132610620Y-116808860D01*
X132501400Y-116882520D01*
X132407420Y-116943480D01*
X132343920Y-116984120D01*
X132313440Y-116999360D01*
X132288040Y-116979040D01*
X132148340Y-116852040D01*
X132051820Y-116758060D01*
X132031500Y-116740280D01*
X131909580Y-116618360D01*
X131825760Y-116532000D01*
X131782580Y-116481200D01*
X131772420Y-116458340D01*
X131792740Y-116427860D01*
X131835920Y-116361820D01*
X131899420Y-116267840D01*
X132046740Y-116049400D01*
X132107700Y-115957960D01*
X132150880Y-115891920D01*
X132166120Y-115863980D01*
X132155960Y-115825880D01*
X132128020Y-115752220D01*
X132089920Y-115653160D01*
X132044200Y-115549020D01*
X132001020Y-115447420D01*
X131962920Y-115361060D01*
X131934980Y-115307720D01*
X131927360Y-115297560D01*
X131891800Y-115289940D01*
X131813060Y-115274700D01*
X131701300Y-115254380D01*
X131592080Y-115234060D01*
X131465080Y-115208660D01*
X131355860Y-115188340D01*
X131279660Y-115170560D01*
X131249180Y-115162940D01*
X131218700Y-115147700D01*
X131226320Y-114395860D01*
X131432060Y-114355220D01*
X131561600Y-114329820D01*
X131698760Y-114304420D01*
X131797820Y-114286640D01*
X131960380Y-114253620D01*
X132069600Y-114007240D01*
X132115320Y-113898020D01*
X132153420Y-113804040D01*
X132178820Y-113727840D01*
X132163580Y-113692280D01*
X132117860Y-113616080D01*
X132051820Y-113511940D01*
X131988320Y-113420500D01*
X131912120Y-113308740D01*
X131848620Y-113214760D01*
X131802900Y-113146180D01*
X131782580Y-113113160D01*
X131780040Y-113097920D01*
X131790200Y-113075060D01*
X131820680Y-113036960D01*
X131874020Y-112978540D01*
X132130560Y-112722000D01*
X132216920Y-112638180D01*
X132277880Y-112579760D01*
X132308360Y-112554360D01*
X132310900Y-112551820D01*
X132338840Y-112567060D01*
X132402340Y-112607700D01*
X132493780Y-112671200D01*
X132605540Y-112747400D01*
X132636020Y-112765180D01*
X132948440Y-112981080D01*
X133202440Y-112876940D01*
X133311660Y-112833760D01*
X133400560Y-112795660D01*
X133456440Y-112772800D01*
X133466600Y-112765180D01*
X133476760Y-112737240D01*
X133492000Y-112661040D01*
X133514860Y-112554360D01*
X133537720Y-112422280D01*
X133542800Y-112396880D01*
X133570740Y-112259720D01*
X133593600Y-112145420D01*
X133611380Y-112061600D01*
X133624080Y-112020960D01*
X133624080Y-112018420D01*
X133654560Y-112013340D01*
X133730760Y-112008260D01*
X133834900Y-112003180D01*
X133959360Y-112000640D01*
X134203200Y-112000640D01*
X134302260Y-112003180D01*
D13*
%TO.C,J1*%
X134100000Y-124250000D02*
X134100000Y-124750000D01*
X139060000Y-127050000D02*
X138450000Y-127050000D01*
X135900000Y-124750000D02*
X135900000Y-124250000D01*
X134100000Y-124750000D02*
X133900000Y-124750000D01*
X136500000Y-128360000D02*
X136500000Y-127750000D01*
X136500000Y-127750000D02*
X138450000Y-127750000D01*
X137300000Y-128560000D02*
X137600000Y-128560000D01*
X128940000Y-128360000D02*
X139060000Y-128360000D01*
X139060000Y-123640000D02*
X128940000Y-123640000D01*
X138450000Y-124250000D02*
X129550000Y-124250000D01*
X128940000Y-127050000D02*
X129550000Y-127050000D01*
X129550000Y-124250000D02*
X129550000Y-127750000D01*
X138110000Y-128660000D02*
X139360000Y-128660000D01*
X132000000Y-124250000D02*
X132000000Y-124750000D01*
X128940000Y-125750000D02*
X129550000Y-125750000D01*
X138450000Y-127750000D02*
X138450000Y-124250000D01*
X136100000Y-124750000D02*
X135900000Y-124750000D01*
X134000000Y-124250000D02*
X134000000Y-124750000D01*
X128940000Y-123640000D02*
X128940000Y-128360000D01*
X139060000Y-128360000D02*
X139060000Y-123640000D01*
X136100000Y-124250000D02*
X136100000Y-124750000D01*
X139360000Y-128660000D02*
X139360000Y-127410000D01*
X133900000Y-124750000D02*
X133900000Y-124250000D01*
X137300000Y-128360000D02*
X137300000Y-128560000D01*
X132100000Y-124750000D02*
X131900000Y-124750000D01*
X137600000Y-128560000D02*
X137600000Y-128360000D01*
X131500000Y-127750000D02*
X131500000Y-128360000D01*
X139060000Y-125750000D02*
X138450000Y-125750000D01*
X129550000Y-127750000D02*
X131500000Y-127750000D01*
X132100000Y-124250000D02*
X132100000Y-124750000D01*
X136000000Y-124250000D02*
X136000000Y-124750000D01*
X131900000Y-124750000D02*
X131900000Y-124250000D01*
X137300000Y-128460000D02*
X137600000Y-128460000D01*
%TO.C,R2*%
X138477500Y-119737258D02*
X138477500Y-119262742D01*
X139522500Y-119737258D02*
X139522500Y-119262742D01*
%TO.C,C2*%
X126510000Y-119640580D02*
X126510000Y-119359420D01*
X125490000Y-119640580D02*
X125490000Y-119359420D01*
%TO.C,R1*%
X136522500Y-119737258D02*
X136522500Y-119262742D01*
X135477500Y-119737258D02*
X135477500Y-119262742D01*
%TO.C,R4*%
X129522500Y-119737258D02*
X129522500Y-119262742D01*
X128477500Y-119737258D02*
X128477500Y-119262742D01*
%TO.C,R3*%
X131477500Y-119737258D02*
X131477500Y-119262742D01*
X132522500Y-119737258D02*
X132522500Y-119262742D01*
%TO.C,J2*%
X137060000Y-102950000D02*
X136450000Y-102950000D01*
X137060000Y-106360000D02*
X137060000Y-101640000D01*
X137060000Y-104250000D02*
X136450000Y-104250000D01*
X133900000Y-105750000D02*
X133900000Y-105250000D01*
X132700000Y-101540000D02*
X132400000Y-101540000D01*
X130940000Y-101640000D02*
X130940000Y-106360000D01*
X132400000Y-101440000D02*
X132400000Y-101640000D01*
X136450000Y-102250000D02*
X134500000Y-102250000D01*
X134100000Y-105250000D02*
X134100000Y-105750000D01*
X130940000Y-104250000D02*
X131550000Y-104250000D01*
X137060000Y-101640000D02*
X130940000Y-101640000D01*
X133900000Y-105250000D02*
X134100000Y-105250000D01*
X136450000Y-105750000D02*
X136450000Y-102250000D01*
X133500000Y-102250000D02*
X131550000Y-102250000D01*
X132700000Y-101440000D02*
X132400000Y-101440000D01*
X132700000Y-101640000D02*
X132700000Y-101440000D01*
X130940000Y-106360000D02*
X137060000Y-106360000D01*
X134500000Y-102250000D02*
X134500000Y-101640000D01*
X130640000Y-101340000D02*
X130640000Y-102590000D01*
X130940000Y-102950000D02*
X131550000Y-102950000D01*
X133500000Y-101640000D02*
X133500000Y-102250000D01*
X131890000Y-101340000D02*
X130640000Y-101340000D01*
X131550000Y-105750000D02*
X136450000Y-105750000D01*
X131550000Y-102250000D02*
X131550000Y-105750000D01*
X134000000Y-105750000D02*
X134000000Y-105250000D01*
%TO.C,C1*%
X141490000Y-119640580D02*
X141490000Y-119359420D01*
X142510000Y-119640580D02*
X142510000Y-119359420D01*
%TD*%
M02*
